<svg width="28" height="26" viewBox="0 0 28 26" fill="none" xmlns="http://www.w3.org/2000/svg">
<path d="M1.79785 3.42857C1.79785 1.53502 3.33288 0 5.22642 0H22.3693C24.2628 0 25.7979 1.53502 25.7979 3.42857V20.5714C25.7979 22.465 24.2628 24 22.3693 24H5.22642C3.33288 24 1.79785 22.465 1.79785 20.5714V3.42857Z" fill="#EBEEF1"/>
<g filter="url(#filter0_ddd_1473_122263)">
<path fill-rule="evenodd" clip-rule="evenodd" d="M5.65479 16.5237C5.65479 16.8348 5.91165 17.0894 6.22556 17.0894H21.3699C21.6838 17.0894 21.9407 16.8348 21.9407 16.5237V7.47647C21.9407 7.16535 21.6838 6.91077 21.3699 6.91077H6.22556C5.91165 6.91077 5.65479 7.16535 5.65479 7.47647V16.5237Z" fill="url(#paint0_linear_1473_122263)"/>
</g>
<rect x="7.4917" y="10.2761" width="2.16904" height="1.64884" rx="0.254467" fill="url(#paint1_linear_1473_122263)"/>
<path d="M9.66079 11.3496V11.6617C9.66079 11.8068 9.54238 11.9253 9.39727 11.9253H7.75522C7.61011 11.9253 7.4917 11.8068 7.4917 11.6617V10.5399C7.4917 10.3948 7.61011 10.2764 7.75522 10.2764H8.92635H9.39659C9.54169 10.2764 9.66011 10.3948 9.66011 10.5399V11.3496" stroke="url(#paint2_linear_1473_122263)" stroke-width="0.0565482" stroke-miterlimit="10"/>
<path d="M8.93009 11.9255L8.9253 11.9214C8.9253 11.9214 8.77677 11.79 8.91914 11.6162V11.3424H9.66111M8.93009 10.278L8.9253 10.2821C8.9253 10.2821 8.77403 10.4156 8.92325 10.5922" stroke="url(#paint3_linear_1473_122263)" stroke-width="0.0565482" stroke-miterlimit="10"/>
<path d="M8.16678 11.9253L8.17157 11.9212C8.17157 11.9212 8.3201 11.7898 8.17773 11.6159V11.3743V11.3421V10.8603V10.8349V10.5858C8.32078 10.4119 8.17362 10.2819 8.17157 10.2805M7.49805 10.8603H8.17362M8.9197 11.3421V10.8603H9.64729M8.17362 11.3401H7.49805" stroke="url(#paint4_linear_1473_122263)" stroke-width="0.0565482" stroke-miterlimit="10"/>
<g clip-path="url(#clip0_1473_122263)">
<path d="M21.2342 16.1088V16.0748H21.2476V16.0681H21.2129V16.0748H21.2262V16.1088H21.2336H21.2342ZM21.3016 16.1088V16.0681H21.2909L21.2789 16.0961L21.2669 16.0681H21.2562V16.1088H21.2636V16.0781L21.2749 16.1048H21.2829L21.2943 16.0781V16.1088H21.3016Z" fill="#F99F1C"/>
</g>
<path d="M20.9361 8.50091H20.4932C20.5066 8.60847 20.5804 8.64209 20.6677 8.64209C20.7549 8.64209 20.8287 8.62192 20.8891 8.5883V8.76982C20.8287 8.80343 20.7482 8.83032 20.6341 8.83032C20.4127 8.83032 20.2584 8.68915 20.2584 8.41352C20.2584 8.13788 20.3926 7.99671 20.6073 7.99671C20.822 7.99671 20.9361 8.17822 20.9361 8.41352C20.9361 8.64881 20.9361 8.48074 20.9361 8.49419V8.50091ZM20.614 8.19167C20.5603 8.19167 20.4932 8.232 20.4932 8.33957H20.7281C20.7281 8.23873 20.6677 8.19167 20.614 8.19167ZM19.9094 8.83032C19.8289 8.83032 19.7819 8.79671 19.7484 8.76982V9.02528L19.5202 9.07234V8.01015H19.7215L19.735 8.06394C19.7685 8.03704 19.8222 7.98999 19.9161 7.98999C20.0772 7.98999 20.2248 8.13116 20.2248 8.40007C20.2248 8.66898 20.0772 8.8236 19.9161 8.8236L19.9094 8.83032ZM19.8557 8.20511C19.8021 8.20511 19.7685 8.22528 19.7484 8.25217V8.5883C19.7685 8.6152 19.8021 8.62864 19.8557 8.62864C19.943 8.62864 19.9967 8.53452 19.9967 8.41352C19.9967 8.29251 19.9363 8.19839 19.8557 8.19839V8.20511ZM19.2048 8.01688H19.433V8.81688H19.2048V8.01688ZM19.2048 7.76141L19.433 7.71436V7.90259L19.2048 7.94965V7.76141ZM18.9767 8.27234V8.81688H18.7486V8.01688H18.9431L18.9566 8.0841C19.0102 7.98326 19.1176 8.00343 19.1445 8.01688V8.22528C19.1176 8.21856 19.0237 8.20511 18.97 8.27234H18.9767ZM18.507 8.53452C18.507 8.66898 18.6479 8.62864 18.6814 8.6152V8.80343C18.6479 8.81688 18.5942 8.83032 18.5204 8.83032C18.3862 8.83032 18.2855 8.72948 18.2855 8.59503V7.86225L18.507 7.8152V8.01015H18.6814V8.20511H18.507V8.5278V8.53452ZM18.2386 8.57486C18.2386 8.7362 18.1111 8.83032 17.9165 8.83032C17.7219 8.83032 17.7554 8.81688 17.6682 8.77654V8.56141C17.742 8.60175 17.8427 8.63536 17.9165 8.63536C17.9903 8.63536 18.0037 8.62192 18.0037 8.58158C18.0037 8.47402 17.6548 8.51436 17.6548 8.25889C17.6548 8.00343 17.7756 8.00343 17.9635 8.00343C18.1513 8.00343 18.1111 8.01688 18.1916 8.04377V8.25889C18.1245 8.21856 18.0373 8.19839 17.9635 8.19839C17.8896 8.19839 17.8829 8.21183 17.8829 8.24545C17.8829 8.34629 18.2319 8.29923 18.2319 8.56814L18.2386 8.57486Z" fill="#474E5A"/>
<defs>
<filter id="filter0_ddd_1473_122263" x="-3.52859e-05" y="4.08336" width="27.5953" height="21.4882" filterUnits="userSpaceOnUse" color-interpolation-filters="sRGB">
<feFlood flood-opacity="0" result="BackgroundImageFix"/>
<feColorMatrix in="SourceAlpha" type="matrix" values="0 0 0 0 0 0 0 0 0 0 0 0 0 0 0 0 0 0 127 0" result="hardAlpha"/>
<feOffset dy="0.282741"/>
<feGaussianBlur stdDeviation="0.424112"/>
<feColorMatrix type="matrix" values="0 0 0 0 0 0 0 0 0 0 0 0 0 0 0 0 0 0 0.12 0"/>
<feBlend mode="normal" in2="BackgroundImageFix" result="effect1_dropShadow_1473_122263"/>
<feColorMatrix in="SourceAlpha" type="matrix" values="0 0 0 0 0 0 0 0 0 0 0 0 0 0 0 0 0 0 127 0" result="hardAlpha"/>
<feOffset dy="0.848223"/>
<feGaussianBlur stdDeviation="0.989594"/>
<feColorMatrix type="matrix" values="0 0 0 0 0.188235 0 0 0 0 0.192157 0 0 0 0 0.239216 0 0 0 0.08 0"/>
<feBlend mode="normal" in2="effect1_dropShadow_1473_122263" result="effect2_dropShadow_1473_122263"/>
<feColorMatrix in="SourceAlpha" type="matrix" values="0 0 0 0 0 0 0 0 0 0 0 0 0 0 0 0 0 0 127 0" result="hardAlpha"/>
<feOffset dy="2.82741"/>
<feGaussianBlur stdDeviation="2.82741"/>
<feColorMatrix type="matrix" values="0 0 0 0 0.188235 0 0 0 0 0.192157 0 0 0 0 0.239216 0 0 0 0.08 0"/>
<feBlend mode="normal" in2="effect2_dropShadow_1473_122263" result="effect3_dropShadow_1473_122263"/>
<feBlend mode="normal" in="SourceGraphic" in2="effect3_dropShadow_1473_122263" result="shape"/>
</filter>
<linearGradient id="paint0_linear_1473_122263" x1="13.7977" y1="6.91077" x2="13.7977" y2="17.0894" gradientUnits="userSpaceOnUse">
<stop stop-color="white"/>
<stop offset="1" stop-color="#F5F6F8"/>
</linearGradient>
<linearGradient id="paint1_linear_1473_122263" x1="8.57622" y1="10.2761" x2="8.57622" y2="11.9249" gradientUnits="userSpaceOnUse">
<stop stop-color="white"/>
<stop offset="1" stop-color="#E2E2E2"/>
</linearGradient>
<linearGradient id="paint2_linear_1473_122263" x1="8.57625" y1="10.2764" x2="8.57625" y2="11.9253" gradientUnits="userSpaceOnUse">
<stop stop-color="#CACACA"/>
<stop offset="1" stop-color="#BFC0C3"/>
</linearGradient>
<linearGradient id="paint3_linear_1473_122263" x1="9.25926" y1="10.278" x2="9.25926" y2="11.9255" gradientUnits="userSpaceOnUse">
<stop stop-color="#CACACA"/>
<stop offset="1" stop-color="#BFC0C3"/>
</linearGradient>
<linearGradient id="paint4_linear_1473_122263" x1="8.57267" y1="10.2805" x2="8.57267" y2="11.9253" gradientUnits="userSpaceOnUse">
<stop stop-color="#CACACA"/>
<stop offset="1" stop-color="#BFC0C3"/>
</linearGradient>
<clipPath id="clip0_1473_122263">
<rect width="3.4031" height="2.10113" fill="white" transform="translate(17.9316 14.4074)"/>
</clipPath>
</defs>
</svg>
