<svg width="24" height="18" viewBox="0 0 24 18" fill="none" xmlns="http://www.w3.org/2000/svg">
<path d="M20.9979 17.9982H2.99971C1.34301 17.9982 0 16.6552 0 14.9985V8.99912L0 2.99971C0 1.34302 1.34301 0 2.99971 0H11.9988H20.9979C22.6546 0 23.9977 1.34301 23.9977 2.99971V14.9985C23.9977 16.6552 22.6546 17.9982 20.9979 17.9982Z" fill="#E25950"/>
<rect y="1.6362" width="23.9977" height="1.6362" fill="#F6F9FC"/>
<rect y="4.90861" width="23.9977" height="1.6362" fill="#F6F9FC"/>
<rect y="8.18102" width="23.9977" height="1.6362" fill="#F6F9FC"/>
<rect y="11.4534" width="23.9977" height="1.6362" fill="#F6F9FC"/>
<rect y="14.7258" width="23.9977" height="1.6362" fill="#F6F9FC"/>
<path opacity="0.1" d="M20.9979 17.9982H2.99971C1.34301 17.9982 0 16.6552 0 14.9985V9.74905H1.49985V14.9985C1.49985 15.8269 2.17136 16.4984 2.99971 16.4984H20.9979C21.8263 16.4984 22.4978 15.8269 22.4978 14.9985V2.99971C22.4978 2.17136 21.8263 1.49985 20.9979 1.49985H11.9988V0H20.9979C22.6546 0 23.9977 1.34301 23.9977 2.99971V14.9985C23.9977 16.6552 22.6546 17.9982 20.9979 17.9982Z" fill="#E25950"/>
<path d="M0 9.82404V2.80687C0 1.25668 1.19379 0 2.66641 0H11.9988V9.82404H0Z" fill="#43458B"/>
<path opacity="0.5" fill-rule="evenodd" clip-rule="evenodd" d="M2.22196 0.0005146C2.49644 -0.00963843 2.75451 0.131071 2.89465 0.367293C3.03479 0.603515 3.03458 0.897449 2.8941 1.13347C2.75363 1.36949 2.49536 1.50984 2.2209 1.49929C1.81801 1.48382 1.49947 1.15257 1.49976 0.749391C1.50004 0.346215 1.81906 0.0154181 2.22196 0.0005146Z" fill="white"/>
<path opacity="0.5" fill-rule="evenodd" clip-rule="evenodd" d="M5.22172 0.0005146C5.49619 -0.00963843 5.75426 0.131071 5.8944 0.367293C6.03455 0.603515 6.03434 0.897449 5.89386 1.13347C5.75338 1.36949 5.49511 1.50984 5.22065 1.49929C4.81777 1.48382 4.49923 1.15257 4.49951 0.749391C4.4998 0.346215 4.81881 0.0154181 5.22172 0.0005146Z" fill="white"/>
<path opacity="0.5" fill-rule="evenodd" clip-rule="evenodd" d="M8.22147 0.0005146C8.49595 -0.00963843 8.75402 0.131071 8.89416 0.367293C9.0343 0.603515 9.03409 0.897449 8.89362 1.13347C8.75314 1.36949 8.49487 1.50984 8.22041 1.49929C7.81753 1.48382 7.49898 1.15257 7.49927 0.749391C7.49955 0.346215 7.81857 0.0154181 8.22147 0.0005146Z" fill="white"/>
<path opacity="0.5" fill-rule="evenodd" clip-rule="evenodd" d="M11.2212 0.0005146C11.4957 -0.00963843 11.7538 0.131071 11.8939 0.367293C12.0341 0.603515 12.0338 0.897449 11.8934 1.13347C11.7529 1.36949 11.4946 1.50984 11.2202 1.49929C10.8173 1.48382 10.4987 1.15257 10.499 0.749391C10.4993 0.346215 10.8183 0.0154181 11.2212 0.0005146Z" fill="white"/>
<path opacity="0.5" fill-rule="evenodd" clip-rule="evenodd" d="M0.722205 1.66535C0.996683 1.6552 1.25475 1.79591 1.39489 2.03213C1.53504 2.26835 1.53483 2.56229 1.39435 2.79831C1.25387 3.03433 0.995603 3.17467 0.72114 3.16413C0.318258 3.14865 -0.000286359 2.8174 1.93177e-07 2.41423C0.000286745 2.01105 0.319302 1.68026 0.722205 1.66535Z" fill="white"/>
<path d="M4.49961 2.41476C4.49961 2.82893 4.16386 3.16469 3.74968 3.16469C3.33551 3.16469 2.99976 2.82893 2.99976 2.41476C2.99976 2.00059 3.33551 1.66484 3.74968 1.66484C4.16386 1.66484 4.49961 2.00059 4.49961 2.41476Z" fill="white"/>
<path d="M7.49937 2.41476C7.49937 2.82893 7.16361 3.16469 6.74944 3.16469C6.33527 3.16469 5.99951 2.82893 5.99951 2.41476C5.99951 2.00059 6.33527 1.66484 6.74944 1.66484C7.16361 1.66484 7.49937 2.00059 7.49937 2.41476Z" fill="white"/>
<path d="M10.4989 2.41476C10.4989 2.82893 10.1631 3.16469 9.74895 3.16469C9.33478 3.16469 8.99902 2.82893 8.99902 2.41476C8.99902 2.00059 9.33478 1.66484 9.74895 1.66484C10.1631 1.66484 10.4989 2.00059 10.4989 2.41476Z" fill="white"/>
<path d="M2.27796 4.82899C2.00349 4.83935 1.74531 4.69882 1.60499 4.4627C1.46468 4.22657 1.46468 3.93263 1.60499 3.6965C1.74531 3.46038 2.00349 3.31985 2.27796 3.33021C2.68084 3.34541 2.99961 3.67643 2.99961 4.0796C2.99961 4.48277 2.68084 4.81378 2.27796 4.82899Z" fill="white"/>
<path d="M5.2777 4.82899C5.00323 4.83934 4.74506 4.69881 4.60474 4.46269C4.46443 4.22657 4.46443 3.93263 4.60474 3.69651C4.74506 3.46039 5.00323 3.31986 5.2777 3.33021C5.68059 3.3454 5.99937 3.67642 5.99937 4.0796C5.99937 4.48277 5.68059 4.8138 5.2777 4.82899Z" fill="white"/>
<path d="M8.27745 4.82899C8.00298 4.83934 7.74481 4.69881 7.6045 4.46269C7.46419 4.22657 7.46419 3.93263 7.6045 3.69651C7.74481 3.46039 8.00298 3.31986 8.27745 3.33021C8.68034 3.3454 8.99912 3.67642 8.99912 4.0796C8.99912 4.48277 8.68034 4.8138 8.27745 4.82899Z" fill="white"/>
<path opacity="0.5" fill-rule="evenodd" clip-rule="evenodd" d="M11.2212 3.33019C11.4957 3.32004 11.7538 3.46075 11.8939 3.69697C12.0341 3.93319 12.0338 4.22712 11.8934 4.46315C11.7529 4.69917 11.4946 4.83951 11.2202 4.82897C10.8173 4.81349 10.4987 4.48224 10.499 4.07907C10.4993 3.67589 10.8183 3.34509 11.2212 3.33019Z" fill="white"/>
<path opacity="0.5" fill-rule="evenodd" clip-rule="evenodd" d="M0.722205 4.99503C0.996683 4.98487 1.25475 5.12558 1.39489 5.36181C1.53504 5.59803 1.53483 5.89196 1.39435 6.12799C1.25387 6.36401 0.995603 6.50435 0.72114 6.49381C0.318258 6.47833 -0.000286359 6.14708 1.93177e-07 5.74391C0.000286745 5.34073 0.319302 5.00993 0.722205 4.99503Z" fill="white"/>
<path d="M4.49961 5.74444C4.49961 6.15861 4.16386 6.49436 3.74968 6.49436C3.33551 6.49436 2.99976 6.15861 2.99976 5.74444C2.99976 5.33027 3.33551 4.99451 3.74968 4.99451C4.16386 4.99451 4.49961 5.33027 4.49961 5.74444Z" fill="white"/>
<path d="M7.49937 5.74444C7.49937 6.15861 7.16361 6.49436 6.74944 6.49436C6.33527 6.49436 5.99951 6.15861 5.99951 5.74444C5.99951 5.33027 6.33527 4.99451 6.74944 4.99451C7.16361 4.99451 7.49937 5.33027 7.49937 5.74444Z" fill="white"/>
<path d="M10.4989 5.74444C10.4989 6.15861 10.1631 6.49436 9.74895 6.49436C9.33478 6.49436 8.99902 6.15861 8.99902 5.74444C8.99902 5.33027 9.33478 4.99451 9.74895 4.99451C10.1631 4.99451 10.4989 5.33027 10.4989 5.74444Z" fill="white"/>
<path d="M2.22196 6.65987C2.49644 6.64972 2.75451 6.79043 2.89465 7.02665C3.03479 7.26287 3.03458 7.5568 2.8941 7.79283C2.75363 8.02885 2.49536 8.16919 2.2209 8.15865C1.81801 8.14317 1.49947 7.81192 1.49976 7.40875C1.50004 7.00557 1.81906 6.67477 2.22196 6.65987Z" fill="white"/>
<path d="M5.22172 6.65987C5.49619 6.64972 5.75426 6.79043 5.8944 7.02665C6.03455 7.26287 6.03434 7.5568 5.89386 7.79283C5.75338 8.02885 5.49511 8.16919 5.22065 8.15865C4.81777 8.14317 4.49923 7.81192 4.49951 7.40875C4.4998 7.00557 4.81881 6.67477 5.22172 6.65987Z" fill="white"/>
<path d="M8.22147 6.65987C8.49595 6.64972 8.75402 6.79043 8.89416 7.02665C9.0343 7.26287 9.03409 7.5568 8.89362 7.79283C8.75314 8.02885 8.49487 8.16919 8.22041 8.15865C7.81753 8.14317 7.49898 7.81192 7.49927 7.40875C7.49955 7.00557 7.81857 6.67477 8.22147 6.65987Z" fill="white"/>
<path opacity="0.5" fill-rule="evenodd" clip-rule="evenodd" d="M11.2212 6.65987C11.4957 6.64972 11.7538 6.79043 11.8939 7.02665C12.0341 7.26287 12.0338 7.5568 11.8934 7.79283C11.7529 8.02885 11.4946 8.16919 11.2202 8.15865C10.8173 8.14317 10.4987 7.81192 10.499 7.40875C10.4993 7.00557 10.8183 6.67477 11.2212 6.65987Z" fill="white"/>
<path opacity="0.5" fill-rule="evenodd" clip-rule="evenodd" d="M0.722205 8.32471C0.996683 8.31455 1.25475 8.45526 1.39489 8.69148C1.53504 8.92771 1.53483 9.22164 1.39435 9.45766C1.25387 9.69369 0.995603 9.83403 0.72114 9.82348C0.318258 9.80801 -0.000286359 9.47676 1.93177e-07 9.07358C0.000286745 8.67041 0.319302 8.33961 0.722205 8.32471Z" fill="white"/>
<path opacity="0.5" fill-rule="evenodd" clip-rule="evenodd" d="M3.72196 8.32471C3.99644 8.31455 4.25451 8.45526 4.39465 8.69148C4.53479 8.92771 4.53458 9.22164 4.3941 9.45766C4.25363 9.69369 3.99536 9.83403 3.7209 9.82348C3.31801 9.80801 2.99947 9.47676 2.99976 9.07358C3.00004 8.67041 3.31906 8.33961 3.72196 8.32471Z" fill="white"/>
<path opacity="0.5" fill-rule="evenodd" clip-rule="evenodd" d="M6.72172 8.32471C6.99619 8.31455 7.25426 8.45526 7.3944 8.69148C7.53455 8.92771 7.53434 9.22164 7.39386 9.45766C7.25338 9.69369 6.99511 9.83403 6.72065 9.82348C6.31777 9.80801 5.99923 9.47676 5.99951 9.07358C5.9998 8.67041 6.31881 8.33961 6.72172 8.32471Z" fill="white"/>
<path opacity="0.5" fill-rule="evenodd" clip-rule="evenodd" d="M9.72123 8.32471C9.99571 8.31455 10.2538 8.45526 10.3939 8.69148C10.5341 8.92771 10.5338 9.22164 10.3934 9.45766C10.2529 9.69369 9.99463 9.83403 9.72016 9.82348C9.31728 9.80801 8.99874 9.47676 8.99902 9.07358C8.99931 8.67041 9.31833 8.33961 9.72123 8.32471Z" fill="white"/>
</svg>
