<svg width="16" height="12" viewBox="0 0 16 12" fill="none" xmlns="http://www.w3.org/2000/svg">
<path d="M16 10C16 11.1046 15.1046 12 14 12H2C0.895431 12 0 11.1046 0 10V2C0 0.895431 0.895431 0 2 0H14C15.1046 0 16 0.895431 16 2V10Z" fill="#43458B"/>
<path d="M13.5 0L14 0C15.1046 0 16 0.895431 16 2L13.5 4H16V8H13.5L16 9.5V10C16 11.1046 15.1046 12 14 12H13L10 9.5V12H6V9.5L2.5 12H2C0.895431 12 0 11.1046 0 10L2.5 8H0V4H2.5L0 2C0 0.895431 0.895431 0 2 0H2.5L6 2.5V0L10 0V2.5L13.5 0Z" fill="#F6F9FC"/>
<path d="M1 5H0V4H1V5ZM16 5H15V4H16V5ZM3.90039 1H2C1.44772 1 1 1.44772 1 2V2.7998L0 2C1.58742e-07 0.89543 0.895431 0 2 0H2.5L3.90039 1ZM14 0C15.1046 0 16 0.895431 16 2L15 2.7998V2C15 1.44772 14.5523 1 14 1H12.0996L13.5 0H14ZM10 1H6V0H10V1Z" fill="#EAEEF3"/>
<path d="M1 10C1 10.5523 1.44772 11 2 11H3.90039L2.5 12H2C0.89543 12 0 11.1046 0 10L1 9.2002V10ZM10 12H6V11H10V12ZM16 9.5V10C16 11.1046 15.1046 12 14 12H13L11.7998 11H14C14.5523 11 15 10.5523 15 10V8.90039L16 9.5ZM1 8H0V7H1V8ZM16 8H15V7H16V8Z" fill="#EAEEF3"/>
<path d="M9 5H16V7H9V12H7V7H0V5H7V0H9V5ZM1.20508 11.8359C0.806767 11.6632 0.475423 11.3644 0.261719 10.9902L4 8H6L1.20508 11.8359ZM15.7383 10.9902C15.5246 11.3644 15.1932 11.6632 14.7949 11.8359L10 8H12L15.7383 10.9902ZM6 4H4L0.261719 1.00977C0.475423 0.635551 0.806767 0.336759 1.20508 0.164062L6 4ZM14.7939 0.164062C15.1926 0.336713 15.5245 0.635336 15.7383 1.00977L12 4H10L14.7939 0.164062Z" fill="#E25950"/>
</svg>
