<svg width="16" height="14" viewBox="0 0 16 14" fill="none" xmlns="http://www.w3.org/2000/svg">
<path d="M16 5.33036H0V2.80562C0 1.43501 1.17431 0.280823 2.5688 0.280823H13.4312C14.8257 0.280823 16 1.43501 16 2.80562V5.33036Z" fill="#34A853"/>
<path d="M16 7.65994H0V4.97661C0 3.51996 1.17431 2.29327 2.5688 2.29327H13.4312C14.8257 2.29327 16 3.51996 16 4.97661V7.65994Z" fill="#FBBC04"/>
<path d="M16 9.89602H0V7.21269C0 5.75604 1.17431 4.52936 2.5688 4.52936H13.4312C14.8257 4.52936 16 5.75604 16 7.21269V9.89602Z" fill="#EA4335"/>
<path d="M0 5.97856L10.1552 8.28695C11.3242 8.57549 12.6393 8.28694 13.589 7.56558L16 5.83429V11.2445C16 12.6151 14.8311 13.6972 13.4429 13.6972H2.55707C1.16893 13.6972 0 12.6151 0 11.2445V5.97856Z" fill="url(#paint0_linear_1473_121801)"/>
<defs>
<linearGradient id="paint0_linear_1473_121801" x1="7.23747" y1="9.91586" x2="-1.04499" y2="19.5597" gradientUnits="userSpaceOnUse">
<stop stop-color="#4285F4"/>
<stop offset="1" stop-color="#1B74E8"/>
</linearGradient>
</defs>
</svg>
