<svg width="16" height="16" viewBox="0 0 16 16" fill="none" xmlns="http://www.w3.org/2000/svg">
<path fill-rule="evenodd" clip-rule="evenodd" d="M8.71344 0.281086C9.04385 0.379172 9.26488 0.689824 9.24923 1.03413L9.03487 5.75007H11.6258C12.5926 5.75007 13.1934 6.80056 12.7032 7.63385L8.14645 15.3803C8.0091 15.6138 7.76054 15.7501 7.5 15.7501C7.42908 15.7501 7.35726 15.7401 7.28656 15.7191C6.95615 15.621 6.73513 15.3103 6.75078 14.966L6.96514 10.2501H4.37421C3.40744 10.2501 2.80662 9.19959 3.29679 8.3663L7.85355 0.619809C7.99091 0.386301 8.23946 0.250005 8.5 0.25C8.57093 0.249999 8.64274 0.260098 8.71344 0.281086ZM4.81132 8.75007H7.75C7.95482 8.75007 8.15074 8.83384 8.29224 8.98192C8.43374 9.13001 8.50853 9.32952 8.49923 9.53413L8.38652 12.0138L11.1887 7.25007H8.25C8.04518 7.25007 7.84927 7.16631 7.70777 7.01822C7.56626 6.87014 7.49148 6.67063 7.50078 6.46602L7.61349 3.98638L4.81132 8.75007Z" fill="#474E5A"/>
</svg>
