<svg width="334" height="212" viewBox="0 0 334 212" fill="none" xmlns="http://www.w3.org/2000/svg">
<g filter="url(#filter0_dd_2014_163634)">
<g clip-path="url(#clip0_2014_163634)">
<g filter="url(#filter1_dd_2014_163634)">
<path d="M308.444 6.81519H19.5556C13.1736 6.81519 8 12.0048 8 18.4065V192.276C8 198.678 13.1736 203.868 19.5556 203.868H308.444C314.826 203.868 320 198.678 320 192.276V18.4065C320 12.0048 314.826 6.81519 308.444 6.81519Z" fill="#F9F9F9"/>
</g>
<path fill-rule="evenodd" clip-rule="evenodd" d="M250.538 37.2101C250.538 40.1724 248.227 41.9755 244.76 41.9755C241.294 41.9755 241.807 41.7179 240.267 41.0739V37.0813C241.679 37.8541 243.348 38.3693 244.76 38.3693C246.173 38.3693 246.301 38.1117 246.301 37.3389C246.301 35.407 240.01 36.051 240.01 31.5433C240.01 27.0355 242.321 26.7779 245.659 26.7779C248.997 26.7779 248.355 27.0355 249.768 27.5507V31.4145C248.484 30.7705 246.943 30.3841 245.659 30.3841C244.375 30.3841 244.247 30.6417 244.247 31.2857C244.247 33.2176 250.538 32.316 250.538 37.2101ZM255.417 36.5662C255.417 39.0132 257.985 38.2405 258.499 37.9829V41.3315C257.985 41.5891 256.958 41.8467 255.546 41.8467C253.106 41.8467 251.309 40.0436 251.309 37.5965V24.2021L255.417 23.3005V26.9067H258.499V30.5129H255.417V36.4374V36.5662ZM264.02 31.8008V41.7179H259.911V27.1643H263.634V28.4522C264.79 26.6491 266.844 27.0355 267.358 27.1643V31.0281C266.844 30.8993 265.047 30.6417 264.02 31.9296V31.8008ZM268.385 22.2702L272.494 21.3687V24.7173L268.385 25.6188V22.2702ZM268.385 27.0355H272.494V41.5891H268.385V27.0355ZM280.197 30.5129C279.299 30.5129 278.657 30.8993 278.271 31.2857V37.4677C278.657 37.8541 279.299 38.2405 280.197 38.2405C281.738 38.2405 282.765 36.5662 282.765 34.3767C282.765 32.1872 281.738 30.5129 280.197 30.5129ZM281.096 41.9755C279.684 41.9755 278.785 41.3315 278.143 40.9451V45.5816L274.034 46.4832V27.0355H277.758V28.0659C278.4 27.5507 279.427 26.7779 281.096 26.7779C284.049 26.7779 286.746 29.3538 286.746 34.2479C286.746 39.142 284.049 41.9755 281.096 41.9755ZM293.936 30.1265C292.909 30.1265 291.753 30.8993 291.753 32.7024H295.99C295.99 30.7705 294.963 30.1265 293.936 30.1265ZM299.842 35.9222H291.753C291.881 37.8541 293.294 38.4981 294.963 38.4981C296.632 38.4981 297.916 38.1117 299.071 37.5965V40.9451C297.916 41.7179 296.504 42.1042 294.449 42.1042C290.469 42.1042 287.644 39.5284 287.644 34.5055C287.644 29.4826 290.084 26.9067 293.936 26.9067C297.788 26.9067 299.97 30.2553 299.97 34.5055C299.97 38.7556 299.97 35.7934 299.97 36.051L299.842 35.9222Z" fill="#323232"/>
<path d="M248.227 98.1303L247.072 98.3879L245.916 98.6455C229.995 102.123 214.459 106.888 198.538 110.237L197.383 110.494C175.941 114.745 154.37 118.48 132.928 122.987C132.286 122.987 131.131 123.374 130.489 123.502C129.462 123.76 127.921 124.018 126.894 124.275L125.738 124.533C109.047 128.139 92.6123 133.033 75.921 136.51C74.637 136.768 21.2247 148.359 8 151.322V152.738C8.38519 152.738 8.64198 152.61 9.02716 152.481C10.5679 152.094 20.8395 149.905 22.3802 149.519C22.3802 149.519 63.4667 140.503 64.879 140.245C84.9086 136.253 104.553 130.715 124.454 126.207C125.096 126.078 126.252 125.821 126.894 125.692L128.049 125.434L129.205 125.177L130.36 124.919C151.417 120.54 172.474 116.676 193.531 112.684L194.686 112.426C195.328 112.426 196.484 112.04 197.126 111.911L198.281 111.654C198.923 111.525 200.079 111.267 200.721 111.138C214.973 108.047 229.096 103.926 243.348 100.706C243.99 100.577 245.146 100.32 245.788 100.191L246.943 99.9334C258.627 97.4863 270.44 95.4257 282.252 93.2362C294.706 90.7891 307.16 88.2133 319.615 85.7662V84.2207C314.351 85.251 309.086 86.2814 303.822 87.3117C285.205 91.3043 266.459 94.2665 247.842 98.1303H248.227Z" fill="#F1F1F1"/>
<path d="M245.788 102.636C228.968 106.371 212.919 113.455 195.97 116.803L194.815 117.061C184.8 119.122 174.528 120.41 164.514 121.826C151.546 123.887 138.449 125.819 125.482 128.395C125.482 128.395 124.326 128.652 124.198 128.652C124.198 128.652 123.042 128.91 122.914 128.91C112.257 131.228 101.6 134.834 91.2001 137.925C81.9556 140.759 72.7112 142.948 63.3383 144.88C62.3112 145.138 60.7704 145.395 59.7433 145.653C59.1013 145.782 57.9457 146.039 57.3037 146.168C56.6618 146.297 55.5062 146.554 54.8642 146.683C45.4914 148.744 36.247 150.933 26.8741 153.123C23.6642 153.896 20.326 154.668 17.1161 155.312C16.0889 155.57 14.5482 155.956 13.521 156.085L12.3655 156.343L11.2099 156.6L10.0544 156.858L8.89881 157.115C8.77042 157.115 8.51363 157.115 8.25684 157.244V158.661C10.1828 158.275 12.1087 157.759 14.163 157.373C28.8 154.153 43.3087 150.547 57.9457 147.327C58.9729 147.07 60.5136 146.812 61.5408 146.554C63.4667 146.168 65.6494 145.653 67.5754 145.267C76.1778 143.335 84.7803 141.274 93.126 138.827C103.141 135.865 113.284 132.516 123.556 130.327C136.78 127.493 150.262 125.433 163.615 123.243C173.758 121.698 183.901 120.41 194.044 118.349C194.686 118.349 195.842 117.963 196.484 117.834L197.64 117.576C197.64 117.576 198.795 117.319 198.923 117.319C215.872 113.584 231.921 106.886 248.869 103.409C262.094 100.704 275.704 99.1588 288.928 96.7118C299.328 94.6511 309.857 92.7192 320.257 90.9161V89.3706C308.958 91.4313 297.531 93.3632 286.232 95.5527C272.879 97.9997 259.269 99.1588 246.044 102.25L245.788 102.636Z" fill="#F1F1F1"/>
<path d="M272.622 102.765C264.405 103.538 256.188 104.182 248.099 105.856C247.457 105.985 246.301 106.243 245.659 106.371C228.069 110.493 212.405 120.152 194.686 123.629C183.516 125.948 172.089 126.849 160.79 128.008C148.207 129.425 135.368 130.327 122.914 132.645C107.763 135.607 93.8963 142.82 79.1309 147.07C68.7309 150.161 58.0741 152.221 47.5457 154.797C34.4494 158.146 21.2247 161.494 8 164.586V166.131C20.9679 163.169 33.8074 159.949 46.6469 156.858C57.1753 154.282 67.8321 152.221 78.2321 149.259C92.2271 145.395 105.452 139.085 119.575 135.736C129.462 133.289 139.733 132.387 149.877 131.228C164.899 129.296 180.049 128.524 194.815 125.433C194.815 125.433 195.97 125.175 196.099 125.175C213.304 121.698 228.968 112.682 246.044 108.69C260.039 105.47 274.42 105.212 288.543 102.765C298.943 100.962 309.343 98.9013 319.872 97.3558V95.8103C311.397 97.0982 302.795 98.3862 294.321 100.06C287.131 101.348 279.812 102.379 272.494 103.151L272.622 102.765Z" fill="#F1F1F1"/>
<path d="M270.311 108.432C262.094 108.69 253.748 108.819 245.659 110.75C231.407 114.099 219.21 122.728 205.472 127.622C187.24 134.062 167.595 134.191 148.593 135.35C139.22 135.865 129.719 135.607 120.474 137.539C105.067 140.502 91.4568 149.259 76.563 154.025C66.6765 157.373 56.2765 159.434 46.2617 162.139C33.5506 165.616 20.8395 168.965 8 172.056V173.601C20.9679 170.51 33.8074 167.162 46.6469 163.684C56.7901 160.98 67.1901 158.919 77.0765 155.699C91.0716 151.32 104.04 143.85 118.42 140.502L119.575 140.244C128.691 138.312 138.064 138.054 147.309 137.539C161.946 136.509 176.711 135.865 191.22 133.16C197.896 131.872 204.573 129.941 210.864 127.365C218.311 124.402 225.373 120.667 232.691 117.576C240.01 114.485 247.714 112.296 255.674 111.523C264.918 110.493 274.291 110.622 283.664 109.463C294.193 108.175 304.721 105.728 315.249 104.311C316.79 104.053 318.331 103.924 319.743 103.667V101.864C309.6 103.023 299.457 105.084 289.442 106.629C283.022 107.659 276.602 108.175 270.183 108.303L270.311 108.432Z" fill="#F1F1F1"/>
<path d="M283.536 114.229C274.291 115.26 264.919 113.972 255.546 114.229C237.442 114.229 223.575 126.207 207.783 133.291C189.936 140.761 170.163 142.177 151.032 142.564C138.706 142.692 126.252 140.503 114.183 143.723C100.444 147.329 88.5037 155.7 75.279 160.466C65.3926 164.072 55.121 166.39 45.1062 169.352C32.7802 172.959 20.4543 176.565 8 179.656V181.201C27.1309 176.436 46.0049 170.64 65.0074 165.617C73.4815 163.299 81.6988 160.208 89.5309 156.602C103.911 149.776 115.338 144.238 131.773 144.367C144.356 144.624 156.938 144.753 169.521 143.336C181.462 142.177 193.531 140.374 204.958 136.253C220.622 130.715 234.232 119.381 251.052 117.32C257.472 116.548 263.891 116.805 270.311 116.934C276.089 116.934 281.867 116.676 287.516 115.904C298.43 114.229 309.086 111.653 320 110.494V108.691C318.459 108.82 316.79 109.078 315.249 109.206C304.593 110.494 294.193 113.328 283.664 114.358L283.536 114.229Z" fill="#F1F1F1"/>
<path d="M304.207 118.092C301.768 118.607 299.328 119.122 296.889 119.766C289.442 121.44 281.867 122.728 274.163 122.213C265.946 121.827 257.857 119.766 249.639 120.281C238.983 120.925 229.738 126.592 220.879 132.001C213.689 136.252 206.242 140.244 198.281 142.691C190.449 145.267 182.232 147.07 174.143 148.487C165.798 149.904 157.323 150.934 148.721 150.676C142.301 150.548 135.881 149.26 129.59 148.744C113.669 146.941 102.242 152.866 88.6321 160.078C79.3876 164.972 69.758 168.836 59.7432 171.67C45.1062 175.791 30.7259 180.943 15.9605 184.935C13.3926 185.708 10.6963 186.352 8 186.996V188.541C22.2519 184.935 36.3753 180.427 50.3704 176.177C59.358 173.473 68.4741 171.154 77.2049 167.548C85.9358 164.071 94.2815 159.563 102.884 155.957C111.486 152.222 120.859 150.676 130.232 151.32C137.551 151.707 144.869 152.737 152.188 152.479C162.459 152.222 172.731 150.548 182.746 148.358L183.901 148.1C194.815 145.782 205.728 142.434 215.743 137.153C226.657 131.615 237.185 124.145 249.639 123.115C258.884 122.342 268.128 124.531 277.501 124.274C282.38 124.274 287.388 123.501 292.267 122.6C292.909 122.6 294.064 122.213 294.706 122.084C294.706 122.084 295.862 121.827 295.99 121.827C303.951 120.024 311.911 118.349 320 117.448V115.645C314.736 116.16 309.343 116.933 304.207 118.092Z" fill="#F1F1F1"/>
<path d="M310.241 123.886C309.6 123.886 308.444 124.273 307.802 124.401C300.098 126.076 292.523 128.78 284.819 129.939C262.992 133.03 251.822 119.765 229.481 132.129C219.723 137.538 209.965 143.72 199.437 147.326C190.962 150.289 182.488 152.865 174.014 155.183C164.641 157.759 154.883 159.948 145.125 158.918C138.962 158.403 133.185 156.857 127.15 156.084C112.513 153.766 101.214 158.918 88.5032 165.486C80.4144 169.736 71.8119 173.471 63.2094 176.305C44.7205 182.1 26.7452 188.669 8.12793 193.692C8.12793 194.207 8.25632 194.722 8.38472 195.108C21.7378 191.631 34.9625 187.381 48.0588 183.002C57.0464 180.169 66.1625 177.721 74.8934 174.244C83.239 171.024 91.1995 166.774 99.5452 163.297C106.735 160.206 114.439 158.145 122.271 158.403C129.59 158.531 136.78 160.206 144.098 160.721C150.646 161.365 157.195 160.721 163.614 159.433C171.446 157.887 179.15 155.569 186.725 153.38C194.172 151.19 201.619 148.872 208.809 145.91C219.595 141.531 229.096 134.318 240.395 131.099C249.896 128.265 259.782 130.841 269.283 132C276.602 133.03 284.177 132.387 291.367 130.712C300.869 128.394 310.37 125.432 320.256 124.273V122.469C316.918 122.856 313.708 123.371 310.498 124.015L310.241 123.886Z" fill="#F1F1F1"/>
<path d="M287.132 137.668C269.028 142.176 259.784 133.804 243.606 134.062C235.517 134.319 228.07 138.054 221.008 141.661C209.196 148.358 196.228 152.479 183.517 157.373C171.576 162.01 159.379 168.063 146.154 167.548C128.692 166.26 119.319 159.434 100.702 166.131C88.3762 170.768 76.9491 177.594 64.3663 181.715C56.2775 184.549 48.0602 186.996 40.0997 189.829C30.3417 193.306 20.4552 196.397 10.4404 199.231C10.8256 199.617 11.0824 200.132 11.4676 200.519C22.5096 197.428 33.4231 193.95 44.3367 190.344C52.8108 187.511 61.5417 185.064 70.0157 181.973C77.4626 179.268 84.7812 175.919 92.0997 172.7C100.06 169.222 108.406 166.131 117.137 166.002C124.84 165.874 132.416 167.805 140.119 168.836C145.384 169.48 150.905 169.48 156.169 168.578C164.129 167.162 171.833 164.07 179.408 161.237C186.213 158.532 193.147 156.085 200.08 153.638C205.986 151.578 211.764 149.259 217.413 146.684C223.319 143.85 229.226 140.759 235.517 138.827C245.018 135.607 254.776 137.926 264.277 139.729C271.981 141.274 279.942 141.274 287.517 139.471C296.119 137.41 304.465 134.191 313.068 132.259C315.379 131.744 317.69 131.357 320.001 130.971V129.168C317.947 129.425 315.892 129.812 313.838 130.198C304.722 132.001 296.119 135.607 287.132 137.797V137.668Z" fill="#F1F1F1"/>
<path d="M287.131 146.04C280.583 147.972 273.649 148.616 266.973 147.457C254.775 145.267 243.605 140.116 231.022 143.851C223.832 145.782 217.156 149.517 210.222 152.222C202.904 155.184 195.457 157.631 188.267 160.98C176.711 166.003 165.926 173.344 153.472 175.791C141.146 178.496 129.333 173.087 117.136 172.443C109.432 171.927 101.728 173.73 94.6666 176.564C87.3481 179.397 80.158 182.875 72.8394 185.708C64.8789 188.928 56.7901 191.375 48.7012 194.08C38.6863 197.428 28.6715 200.777 18.5283 203.868C18.9135 203.868 19.2987 203.868 19.6839 203.868H23.7925C30.3407 201.936 36.7604 199.875 43.1802 197.686C52.553 194.595 61.9259 191.89 71.1703 188.542C88.5036 182.488 104.168 172.443 123.299 175.276C142.943 178.367 150.647 180.428 169.778 171.799C176.711 168.708 183.516 165.23 190.578 162.268C197.768 159.306 205.215 156.859 212.533 154.025C229.481 147.07 236.928 142.691 255.802 147.07C264.148 149.002 272.879 150.419 281.481 148.874C293.165 146.684 303.951 141.146 315.635 138.828C317.175 138.441 318.588 138.184 320.128 137.926V136.123C318.844 136.252 317.689 136.509 316.405 136.767C306.39 138.699 296.889 143.078 287.131 145.911V146.04Z" fill="#F1F1F1"/>
<path d="M279.812 155.57C272.751 157.116 265.304 156.858 258.242 155.055C247.457 152.479 237.314 149.002 226.143 152.093C220.237 153.638 214.588 156.085 208.938 158.146C201.491 160.851 194.173 163.555 187.111 167.161C175.556 172.957 165.027 181.071 152.188 183.647C142.686 185.836 132.928 183.776 123.427 182.359C116.879 181.329 109.946 181.2 103.398 182.488C91.0716 184.935 79.7729 190.988 67.9605 194.981C59.1013 197.943 50.1136 200.905 41.126 203.867H46.5186C54.7359 201.292 62.9531 198.844 71.042 196.011C86.321 190.731 101.6 182.745 118.163 183.905C124.711 184.291 131.131 185.579 137.551 185.965C149.106 186.996 160.533 183.389 170.677 177.98C177.481 174.374 184.286 170.639 191.348 167.419C198.153 164.457 205.215 162.139 212.148 159.692C228.583 153.509 235.516 151.706 252.978 155.957C262.222 158.146 271.852 159.176 281.096 156.729C293.551 153.638 304.978 147.456 317.56 145.138C318.202 145.009 318.973 144.88 319.615 144.752V142.948C318.844 143.077 317.946 143.206 317.175 143.335C304.079 145.653 292.395 152.479 279.427 155.441L279.812 155.57Z" fill="#F1F1F1"/>
<path d="M313.837 150.676C300.869 153.638 289.185 160.593 276.217 163.426L275.062 163.684C272.365 164.199 269.412 164.585 266.716 164.585C250.281 164.585 238.597 155.312 221.392 160.335C216.385 161.623 211.506 163.426 206.627 165.229C199.565 167.805 192.503 170.639 185.827 174.374C174.528 180.556 163.871 188.412 151.032 190.859C145.896 191.889 140.632 192.276 135.496 192.018C128.563 191.632 121.758 190.473 114.824 190.473C107.249 190.473 99.5455 191.889 92.4838 194.208C83.3677 197.17 74.6368 200.776 65.7776 203.738C65.264 203.867 64.8788 203.996 64.3652 204.253H70.143C80.543 200.776 90.8146 196.526 101.6 194.079C112.385 191.503 123.427 192.92 134.212 193.564C142.044 193.95 150.005 193.048 157.452 190.73C170.548 186.609 181.59 178.109 194.173 172.957C200.464 170.252 207.012 168.063 213.432 165.873C220.75 163.426 228.454 161.237 236.286 161.881C242.834 162.396 249.126 164.199 255.545 165.358C262.864 166.646 270.439 166.646 277.758 164.843C291.111 161.623 303.18 154.797 316.661 152.221C317.817 151.964 318.844 151.835 320 151.577V149.774C318.716 149.903 317.56 150.161 316.276 150.418C315.634 150.418 314.479 150.805 313.837 150.933V150.676Z" fill="#F1F1F1"/>
<path d="M262.992 171.541C246.943 171.541 235.772 163.04 218.824 167.806C207.397 171.025 196.227 175.533 185.698 181.071C174.528 186.996 163.614 194.079 150.903 196.526L149.748 196.784C133.313 200.133 116.236 196.14 99.8019 200.261C99.8019 200.261 98.6464 200.519 98.518 200.519C94.6661 201.42 90.8143 202.58 87.0908 203.868H93.8958C96.8488 203.095 99.8019 202.322 102.755 201.678C119.19 198.201 136.266 201.678 152.572 197.685C164.898 195.11 175.812 188.412 186.982 182.874C197.767 177.594 209.195 173.215 220.878 170.124C240.523 165.359 253.106 176.692 274.291 171.541C274.291 171.541 275.446 171.283 275.575 171.283C289.185 167.934 301.896 160.98 315.762 158.404C317.303 158.146 318.716 157.889 320.256 157.631V155.828C314.478 156.601 308.701 158.146 303.051 160.078C289.955 164.586 277.372 171.412 263.249 171.541H262.992Z" fill="#F1F1F1"/>
<path d="M310.241 164.198C291.239 168.448 273.52 180.297 253.49 177.722C242.834 176.305 232.177 172.827 221.392 175.146C209.451 177.722 198.152 183.002 187.11 188.154C177.609 192.661 168.236 197.684 158.093 200.647C152.187 202.45 146.152 203.351 139.989 203.995H150.389C151.031 203.866 151.802 203.738 152.315 203.609C163.486 201.291 173.886 196.525 184.157 191.76C191.347 188.411 198.537 185.32 205.984 182.616C214.844 179.267 224.216 176.305 233.718 177.078C240.651 177.464 247.328 179.138 254.261 179.653C260.424 180.169 266.715 179.653 272.75 178.108C285.974 174.888 298.3 168.706 311.653 165.873C314.35 165.229 317.046 164.842 319.871 164.456V162.653C316.532 163.039 313.323 163.683 310.113 164.456L310.241 164.198Z" fill="#F1F1F1"/>
<path d="M260.553 183.904C247.456 184.935 234.488 180.556 221.52 183.389C213.046 185.063 204.958 188.541 196.869 191.889C186.854 196.011 176.967 200.518 166.567 203.867H171.575C188.009 198.2 203.674 190.086 220.622 185.965C229.738 183.775 239.239 184.806 248.355 185.45C254.903 185.965 261.451 185.707 267.871 184.419C283.15 181.328 297.53 174.631 312.938 171.926C315.249 171.411 317.56 171.154 319.871 170.767V169.093C315.762 169.608 311.654 170.381 307.674 171.282C291.753 174.76 276.73 182.616 260.424 184.033L260.553 183.904Z" fill="#F1F1F1"/>
<path d="M268.899 188.412C262.222 189.957 255.289 190.601 248.484 190.601C238.598 190.601 228.583 190.215 218.953 192.791C209.709 195.109 200.978 198.715 192.119 202.064C190.45 202.708 188.78 203.223 187.111 203.867H191.99C199.052 201.291 206.114 198.715 213.304 196.397C221.136 193.95 229.225 192.662 237.442 192.404C247.2 192.147 257.087 192.404 266.716 190.344C280.326 187.639 293.294 182.745 306.904 179.912C311.269 179.01 315.635 178.237 320 177.593V175.919C316.277 176.434 312.682 177.078 309.087 177.851C295.477 180.427 282.509 185.45 268.899 188.412Z" fill="#F1F1F1"/>
<path d="M301.768 186.609C290.341 189.056 279.17 192.534 267.743 194.981C252.593 198.458 236.543 197.943 221.521 201.291C218.054 202.064 214.588 202.966 211.121 203.996H217.798C218.696 203.739 219.724 203.481 220.622 203.352C235.003 200.004 249.896 200.132 264.405 197.299C265.432 197.041 266.973 196.784 268.129 196.526C268.129 196.526 269.284 196.269 269.412 196.269C269.412 196.269 270.568 196.011 270.696 196.011C280.84 193.693 290.983 190.859 301.126 188.541L302.282 188.283C302.924 188.155 304.079 187.897 304.721 187.768C309.857 186.609 314.993 185.708 320.257 184.806V183.26C314.993 184.162 309.728 185.064 304.464 186.223C303.822 186.352 302.667 186.609 302.025 186.738L301.768 186.609Z" fill="#F1F1F1"/>
<path d="M300.483 194.078C299.841 194.207 298.685 194.464 298.043 194.593L296.888 194.851C284.69 197.555 272.621 200.646 260.423 202.964C258.626 203.351 256.957 203.608 255.159 203.866H263.248C264.404 203.608 265.688 203.351 266.843 203.093L267.999 202.836C276.986 200.904 285.846 198.714 294.705 196.782C297.915 196.138 301.253 195.366 304.463 194.722L305.618 194.464C306.646 194.207 308.186 193.949 309.214 193.691C312.809 192.919 316.275 192.275 319.87 191.631V190.085C314.221 191.116 308.443 192.275 302.794 193.434C302.152 193.434 300.996 193.82 300.354 193.949L300.483 194.078Z" fill="#F1F1F1"/>
<path d="M304.207 200.261C302.667 200.518 300.869 200.905 299.328 201.291C295.22 202.193 291.24 203.094 287.131 203.867H293.936C294.578 203.738 295.22 203.609 295.99 203.481L297.146 203.223C297.788 203.094 298.943 202.837 299.585 202.708C301.126 202.321 302.923 202.064 304.464 201.677L305.62 201.42C306.262 201.42 307.417 201.033 308.059 200.905L309.215 200.647C310.756 200.389 312.553 200.003 314.094 199.617C315.378 199.359 316.662 199.102 317.817 198.844C318.202 198.329 318.459 197.814 318.716 197.17C314.993 197.942 311.269 198.715 307.674 199.488C306.647 199.746 305.106 200.003 304.079 200.261H304.207Z" fill="#F1F1F1"/>
<path d="M8 138.569V140.115L320 73.529V72.1123L8 138.569Z" fill="#F1F1F1"/>
<path d="M8 146.04L320 79.454V77.9084L8 144.623V146.04Z" fill="#F1F1F1"/>
<path d="M248.227 98.1303L247.072 98.3879L245.916 98.6455C229.995 102.123 214.459 106.888 198.538 110.237L197.383 110.494C175.941 114.745 154.37 118.48 132.928 122.987C132.286 122.987 131.131 123.374 130.489 123.502C129.462 123.76 127.921 124.018 126.894 124.275L125.738 124.533C109.047 128.139 92.6123 133.033 75.921 136.51C74.637 136.768 21.2247 148.359 8 151.322V151.708C21.2247 148.746 74.637 137.154 75.5358 136.897C92.2272 133.291 108.662 128.525 125.353 124.919L126.509 124.662C127.536 124.404 129.077 124.146 130.104 123.889C130.746 123.889 131.901 123.502 132.543 123.374C153.985 118.866 175.556 115.26 196.998 110.881L198.153 110.623C214.074 107.275 229.61 102.38 245.531 99.0318L246.686 98.7743L247.842 98.5167C266.459 94.7817 285.205 91.6907 303.822 87.6981C309.086 86.6678 314.351 85.6374 319.615 84.6071V84.2207C314.351 85.251 309.086 86.2814 303.822 87.3117C285.205 91.3043 266.459 94.2665 247.842 98.1303H248.227Z" fill="#DADADA"/>
<path d="M245.788 102.637C228.968 106.372 212.919 113.456 195.97 116.804L194.815 117.062C184.8 119.123 174.528 120.411 164.514 121.827C151.546 123.888 138.449 125.82 125.482 128.396C125.482 128.396 124.326 128.653 124.198 128.653C124.198 128.653 123.042 128.911 122.914 128.911C112.257 131.229 101.6 134.835 91.2001 137.926C81.9556 140.76 72.7112 142.949 63.3383 144.881C62.3112 145.139 60.7704 145.396 59.7433 145.654C59.1013 145.783 57.9457 146.04 57.3037 146.169C56.6618 146.298 55.5062 146.556 54.8642 146.684C45.4914 148.745 36.247 150.935 26.8741 153.124C23.6642 153.897 20.326 154.669 17.1161 155.313C16.0889 155.571 14.5482 155.957 13.521 156.086L12.3655 156.344L11.2099 156.601L10.0544 156.859L8.89881 157.117C8.77042 157.117 8.51363 157.117 8.25684 157.245V157.632C8.51363 157.632 8.77042 157.632 8.89881 157.503L10.0544 157.245L11.2099 156.988L12.3655 156.73L13.521 156.473C14.5482 156.215 16.0889 155.829 17.1161 155.7C20.326 154.927 23.6642 154.154 26.8741 153.51C36.1186 151.321 45.4914 149.131 54.8642 147.071C55.5062 146.942 56.6618 146.684 57.3037 146.556C57.9457 146.427 59.1013 146.169 59.7433 146.04C60.7704 145.783 62.3112 145.525 63.3383 145.268C72.7112 143.207 81.9556 141.017 91.2001 138.313C101.6 135.222 112.128 131.616 122.914 129.297C122.914 129.297 124.069 129.04 124.198 129.04C124.198 129.04 125.353 128.782 125.482 128.782C138.449 126.206 151.417 124.274 164.514 122.214C174.657 120.668 184.8 119.509 194.815 117.448L195.97 117.191C212.919 113.842 228.968 106.759 245.788 103.024C259.012 100.061 272.622 98.7735 285.975 96.3265C297.274 94.137 308.701 92.0763 320 90.1444V89.7581C308.701 91.8187 297.274 93.7506 285.975 95.9401C272.622 98.3872 259.012 99.5463 245.788 102.637Z" fill="#DADADA"/>
<path d="M272.622 102.766C264.405 103.539 256.188 104.183 248.099 105.857C247.457 105.986 246.301 106.244 245.659 106.373C228.069 110.494 212.405 120.153 194.686 123.631C183.516 125.949 172.089 126.851 160.79 128.01C148.207 129.426 135.368 130.328 122.914 132.646C107.763 135.608 93.8963 142.821 79.1309 147.071C68.7309 150.162 58.0741 152.223 47.5457 154.799C34.4494 158.147 21.2247 161.496 8 164.587V164.973C21.2247 161.882 34.4494 158.662 47.5457 155.314C58.0741 152.738 68.7309 150.677 79.1309 147.586C93.8963 143.207 107.763 136.124 122.914 133.161C135.368 130.714 148.207 129.942 160.79 128.525C172.089 127.366 183.516 126.593 194.686 124.146C212.405 120.797 228.198 111.009 245.659 106.888C246.301 106.759 247.457 106.501 248.099 106.373C256.188 104.698 264.405 104.054 272.622 103.282C279.941 102.509 287.259 101.607 294.449 100.19C302.923 98.5162 311.398 97.2283 320 95.9403V95.554C311.526 96.8419 302.923 98.1298 294.449 99.8041C287.259 101.092 279.941 102.122 272.622 102.895V102.766Z" fill="#DADADA"/>
<path d="M270.311 108.433C262.094 108.69 253.748 108.819 245.659 110.751C231.407 114.1 219.21 122.729 205.472 127.623C187.239 134.063 167.595 134.191 148.593 135.35C139.22 135.866 129.718 135.608 120.474 137.54C105.067 140.502 91.4568 149.26 76.563 154.025C66.6765 157.374 56.2765 159.435 46.2617 162.139C33.5506 165.617 20.8395 168.965 8 172.056V172.443C20.8395 169.352 33.5506 165.874 46.2617 162.526C56.4049 159.821 66.6765 157.76 76.563 154.412C91.4568 149.646 104.938 140.889 120.474 137.926C129.718 136.123 139.22 136.252 148.593 135.737C167.595 134.578 187.239 134.578 205.472 128.009C219.21 123.115 231.407 114.486 245.659 111.137C253.748 109.206 262.094 109.077 270.311 108.819C276.731 108.562 283.279 108.046 289.57 107.145C299.714 105.471 309.728 103.539 319.872 102.38V101.993C309.728 103.152 299.585 105.213 289.57 106.758C283.151 107.789 276.731 108.304 270.311 108.433Z" fill="#DADADA"/>
<path d="M283.536 114.229C274.291 115.26 264.919 113.972 255.546 114.229C237.442 114.229 223.575 126.207 207.783 133.291C189.936 140.761 170.163 142.177 151.032 142.564C138.706 142.692 126.252 140.503 114.183 143.723C100.444 147.329 88.5037 155.7 75.279 160.466C65.3926 164.072 55.121 166.39 45.1062 169.352C32.7802 172.959 20.4543 176.565 8 179.656V180.042C20.4543 176.951 32.7802 173.345 45.1062 169.739C55.121 166.777 65.521 164.458 75.279 160.852C88.6321 156.087 100.444 147.715 114.183 144.109C119.447 142.692 124.711 142.306 130.104 142.306C135.496 142.306 143.328 142.95 149.748 142.95C156.168 142.95 150.519 142.95 150.904 142.95C170.035 142.564 189.807 141.276 207.654 133.677C223.447 126.722 237.314 114.744 255.417 114.616C256.059 114.616 256.573 114.616 257.215 114.616C263.249 114.616 269.284 115.131 275.319 115.131C281.353 115.131 280.711 115.131 283.407 114.744C294.064 113.714 304.464 110.881 314.993 109.593C316.533 109.335 318.202 109.206 319.743 109.078V108.691C318.202 108.82 316.533 109.078 314.993 109.206C304.336 110.494 293.936 113.328 283.407 114.358L283.536 114.229Z" fill="#DADADA"/>
<path d="M304.207 118.092C301.768 118.607 299.328 119.122 296.889 119.766C289.442 121.44 281.867 122.728 274.163 122.213C265.946 121.827 257.857 119.766 249.639 120.281C238.983 120.925 229.738 126.592 220.879 132.001C213.689 136.252 206.242 140.244 198.281 142.691C190.449 145.267 182.232 147.07 174.143 148.487C165.798 149.904 157.323 150.934 148.721 150.676C142.301 150.548 135.881 149.26 129.59 148.744C113.669 146.941 102.242 152.866 88.6321 160.078C79.3876 164.972 69.758 168.836 59.7432 171.67C45.1062 175.791 30.7259 180.943 15.9605 184.935C13.3926 185.708 10.6963 186.352 8 186.996V187.382C10.6963 186.738 13.2642 185.966 15.9605 185.322C30.5975 181.329 44.9778 176.177 59.7432 172.056C69.758 169.222 79.516 165.359 88.6321 160.465C100.573 154.154 110.844 148.873 123.941 148.873C137.037 148.873 127.664 148.873 129.59 149.131C136.01 149.646 142.301 150.805 148.721 151.063C149.748 151.063 150.775 151.063 151.931 151.063C159.378 151.063 166.825 150.161 174.143 148.873C182.232 147.457 190.449 145.653 198.281 143.078C206.242 140.631 213.689 136.638 220.879 132.388C229.738 127.107 238.983 121.312 249.639 120.668C250.667 120.668 251.694 120.668 252.593 120.668C259.783 120.668 266.973 122.342 274.035 122.728C275.19 122.728 276.217 122.728 277.373 122.728C283.921 122.728 290.341 121.569 296.76 120.153C299.072 119.637 301.639 118.993 304.079 118.478C309.343 117.319 314.607 116.546 319.872 116.031V115.645C314.607 116.16 309.215 116.933 304.079 118.092H304.207Z" fill="#DADADA"/>
<path d="M310.241 123.889C309.599 123.889 308.444 124.275 307.802 124.404C300.098 126.078 292.523 128.783 284.819 129.942C262.992 133.033 251.822 119.767 229.481 132.131C219.723 137.541 209.965 143.723 199.437 147.329C190.962 150.291 182.488 152.867 174.014 155.185C164.641 157.761 154.883 159.95 145.125 158.92C138.962 158.405 133.185 156.859 127.15 156.087C112.513 153.768 101.214 158.92 88.5032 165.489C80.4143 169.739 71.8119 173.474 63.2094 176.307C44.7205 182.103 26.7452 188.671 8.12793 193.694C8.12793 193.694 8.12793 193.952 8.12793 194.08C26.7452 189.058 44.7205 182.489 63.2094 176.822C71.8119 173.989 80.4143 170.254 88.5032 166.004C99.0316 160.466 108.661 155.958 120.088 155.958C122.4 155.958 124.711 156.087 127.022 156.473C133.056 157.246 138.834 158.791 144.997 159.306C146.666 159.435 148.335 159.564 150.004 159.564C157.965 159.564 166.054 157.761 173.886 155.572C182.36 153.253 190.834 150.677 199.308 147.715C209.965 144.238 219.595 137.927 229.353 132.518C236.671 128.396 242.834 127.108 248.612 127.108C258.37 127.108 266.844 130.843 277.886 130.843C288.928 130.843 282.251 130.715 284.691 130.328C292.395 129.298 300.098 126.593 307.674 124.79C308.316 124.661 309.471 124.404 310.113 124.275C313.323 123.502 316.661 123.116 319.871 122.729V122.343C316.533 122.729 313.323 123.245 310.113 123.889H310.241Z" fill="#DADADA"/>
<path d="M287.132 137.668C269.028 142.176 259.784 133.804 243.606 134.062C235.517 134.319 228.07 138.054 221.008 141.66C209.196 148.358 196.228 152.479 183.517 157.373C171.576 162.01 159.379 168.063 146.154 167.548C128.692 166.26 119.319 159.434 100.702 166.131C88.3762 170.768 76.9491 177.594 64.3663 181.715C56.2775 184.548 48.0602 186.995 40.0997 189.829C30.3417 193.306 20.4552 196.397 10.4404 199.231C10.4404 199.231 10.5688 199.488 10.6972 199.488C20.5836 196.784 30.4701 193.564 40.2281 190.215C48.317 187.382 56.5342 184.935 64.4947 182.101C77.0775 177.98 88.5046 171.154 100.831 166.517C106.865 164.328 111.873 163.555 116.495 163.555C126.253 163.555 134.47 167.033 146.282 167.934C146.924 167.934 147.438 167.934 148.08 167.934C160.534 167.934 172.218 162.138 183.645 157.76C196.228 152.865 209.324 148.744 221.137 142.047C228.198 138.312 235.645 134.577 243.734 134.448C243.991 134.448 244.248 134.448 244.633 134.448C256.831 134.448 265.176 139.342 276.86 139.342C288.544 139.342 283.537 138.956 287.389 138.054C296.376 135.865 305.107 132.259 314.095 130.456C316.149 130.069 318.203 129.683 320.258 129.425V129.039C318.203 129.296 316.149 129.683 314.095 130.069C304.979 131.872 296.376 135.478 287.389 137.668H287.132Z" fill="#DADADA"/>
<path d="M287.131 146.04C280.583 147.972 273.649 148.616 266.973 147.457C254.775 145.267 243.605 140.116 231.022 143.851C223.832 145.782 217.155 149.517 210.222 152.222C202.904 155.184 195.457 157.631 188.267 160.98C176.711 166.003 165.926 173.344 153.472 175.791C141.146 178.496 129.333 173.087 117.136 172.443C109.432 171.927 101.728 173.73 94.6666 176.564C87.3481 179.397 80.1579 182.875 72.8394 185.708C64.8789 188.928 56.79 191.375 48.7012 194.08C38.6863 197.428 28.6715 200.777 18.5283 203.868C18.9135 203.868 19.2987 203.868 19.6839 203.868C29.4419 200.906 39.0715 197.686 48.8295 194.466C56.9184 191.761 65.1357 189.186 72.9678 186.095C80.2863 183.261 87.4764 179.784 94.795 176.95C101.215 174.503 108.02 172.829 114.825 172.829C115.595 172.829 116.494 172.829 117.264 172.829C127.022 173.473 136.652 176.95 146.41 176.95C156.168 176.95 151.16 176.693 153.6 176.178C166.054 173.73 176.839 166.389 188.395 161.366C195.585 158.147 203.032 155.571 210.351 152.608C217.284 149.904 223.832 146.169 231.15 144.237C234.36 143.335 237.442 142.949 240.395 142.949C249.383 142.949 257.985 146.298 267.101 147.843C269.284 148.23 271.595 148.358 273.906 148.358C278.4 148.358 283.022 147.586 287.259 146.298C297.017 143.335 306.39 139.085 316.533 137.153C317.817 136.896 318.973 136.638 320.257 136.509V136.123C318.973 136.252 317.817 136.509 316.533 136.767C306.518 138.699 297.017 143.078 287.259 145.911L287.131 146.04Z" fill="#DADADA"/>
<path d="M279.812 155.57C272.751 157.115 265.304 156.858 258.242 155.055C247.457 152.479 237.314 149.001 226.143 152.092C220.237 153.638 214.588 156.085 208.938 158.146C201.491 160.85 194.173 163.555 187.111 167.161C175.556 172.957 165.027 181.071 152.188 183.647C142.686 185.836 132.928 183.775 123.427 182.359C116.879 181.328 109.946 181.199 103.398 182.487C91.0717 184.934 79.7729 190.988 67.9605 194.98C59.1013 197.943 50.1136 200.905 41.126 203.867H42.2815C50.884 201.162 59.3581 198.329 67.9605 195.367C79.7729 191.245 91.0717 185.321 103.398 182.874C106.736 182.23 110.074 181.972 113.412 181.972C116.751 181.972 120.089 182.23 123.299 182.745C129.847 183.775 136.395 185.063 142.943 185.063C149.491 185.063 148.978 184.806 151.931 184.033C164.77 181.457 175.427 173.343 186.854 167.547C193.916 163.941 201.235 161.237 208.682 158.532C214.331 156.471 219.98 154.024 225.886 152.479C229.096 151.577 232.178 151.191 235.131 151.191C242.835 151.191 250.282 153.509 257.985 155.441C261.965 156.471 266.074 156.986 270.183 156.986C274.291 156.986 276.474 156.6 279.556 155.956C292.395 152.994 304.207 146.168 317.304 143.85C318.074 143.721 318.973 143.592 319.743 143.463V143.077C318.973 143.206 318.074 143.334 317.304 143.463C304.207 145.782 292.523 152.608 279.556 155.57H279.812Z" fill="#DADADA"/>
<path d="M313.837 150.676C300.869 153.638 289.185 160.593 276.217 163.426L275.062 163.684C272.365 164.199 269.412 164.585 266.716 164.585C250.281 164.585 238.597 155.312 221.392 160.335C216.385 161.623 211.506 163.426 206.627 165.229C199.565 167.805 192.503 170.639 185.827 174.374C174.528 180.556 163.871 188.412 151.032 190.859C145.896 191.889 140.632 192.276 135.496 192.018C128.563 191.632 121.758 190.473 114.824 190.473C107.249 190.473 99.5455 191.889 92.4838 194.208C83.3677 197.17 74.6368 200.776 65.7776 203.738C65.264 203.867 64.8788 203.996 64.3652 204.253H65.5208C65.5208 204.253 65.6492 204.253 65.7776 204.253C74.6368 201.291 83.4961 197.685 92.4838 194.723C99.2887 192.533 106.736 190.988 114.054 190.988C121.373 190.988 114.568 190.988 114.824 190.988C121.758 190.988 128.563 192.147 135.496 192.533C136.652 192.533 137.679 192.533 138.834 192.533C142.943 192.533 147.052 192.147 151.16 191.374C164 188.927 174.785 180.942 185.955 174.889C192.632 171.283 199.565 168.32 206.755 165.744C211.634 164.07 216.513 162.138 221.521 160.85C225.116 159.82 228.582 159.434 231.792 159.434C243.861 159.434 254.005 165.229 266.844 165.229C269.669 165.229 272.494 164.843 275.19 164.328L276.345 164.07C289.313 161.237 300.997 154.282 313.965 151.32C314.607 151.191 315.763 150.933 316.405 150.805C317.56 150.547 318.844 150.289 320.128 150.161V149.774C318.844 149.903 317.689 150.161 316.405 150.418C315.763 150.418 314.607 150.805 313.965 150.933L313.837 150.676Z" fill="#DADADA"/>
<path d="M262.992 171.541C246.943 171.541 235.772 163.041 218.824 167.806C207.397 171.026 196.227 175.534 185.698 181.072C174.528 186.996 163.614 194.08 150.903 196.527L149.748 196.784C133.313 200.133 116.236 196.14 99.8019 200.262C99.8019 200.262 98.6464 200.519 98.518 200.519C94.6661 201.421 90.8143 202.58 87.0908 203.868H88.2464C91.713 202.838 95.0513 201.807 98.518 200.906C98.518 200.906 99.6735 200.648 99.8019 200.648C106.735 198.974 113.669 198.587 120.73 198.587C127.792 198.587 127.535 198.587 131.002 198.587C137.293 198.587 143.585 198.33 149.748 197.042L150.903 196.784C163.486 194.337 174.528 187.254 185.698 181.329C196.227 175.791 207.397 171.283 218.824 168.064C222.548 167.033 226.014 166.647 229.353 166.647C240.908 166.647 250.538 171.67 262.992 171.799C277.115 171.799 289.827 164.715 302.794 160.336C308.315 158.404 314.093 156.987 319.999 156.086V155.699C314.222 156.472 308.444 158.018 302.794 159.95C289.698 164.457 277.115 171.283 262.992 171.412V171.541Z" fill="#DADADA"/>
<path d="M310.241 164.198C291.239 168.449 273.52 180.297 253.49 177.722C242.834 176.305 232.177 172.827 221.392 175.146C209.451 177.722 198.152 183.002 187.11 188.154C177.609 192.662 168.236 197.684 158.093 200.647C152.187 202.45 146.152 203.351 139.989 203.995H143.328C148.335 203.351 153.214 202.45 157.965 201.033C168.108 198.2 177.481 193.177 186.982 188.54C198.024 183.517 209.194 178.108 221.263 175.532C223.831 175.017 226.399 174.759 228.967 174.759C237.056 174.759 245.273 176.949 253.234 178.108C255.16 178.366 257.086 178.494 259.011 178.494C276.73 178.494 292.779 168.449 309.856 164.585C313.066 163.812 316.404 163.297 319.614 162.782V162.395C316.276 162.782 313.066 163.426 309.856 164.198H310.241Z" fill="#DADADA"/>
<path d="M260.553 183.905C247.456 184.935 234.488 180.556 221.52 183.39C213.046 185.064 204.958 188.542 196.869 191.89C186.854 196.012 176.967 200.519 166.567 203.868H167.723C177.609 200.648 187.111 196.269 196.74 192.277C204.701 188.928 212.79 185.451 221.392 183.776C224.73 183.003 227.94 182.746 231.278 182.746C239.496 182.746 247.841 184.42 256.059 184.42C264.276 184.42 259.012 184.42 260.424 184.291C276.859 182.875 291.753 175.018 307.674 171.541C311.654 170.511 315.762 169.867 319.871 169.351V168.965C315.762 169.48 311.654 170.253 307.674 171.155C291.753 174.632 276.73 182.488 260.424 183.905H260.553Z" fill="#DADADA"/>
<path d="M268.899 188.412C262.222 189.957 255.289 190.601 248.484 190.601C238.598 190.601 228.583 190.215 218.953 192.791C209.709 195.109 200.978 198.715 192.119 202.064C190.45 202.708 188.78 203.223 187.111 203.867H188.138C189.422 203.352 190.706 202.965 191.99 202.45C200.85 199.102 209.709 195.495 218.825 193.177C226.272 191.245 233.976 190.988 241.679 190.988C249.383 190.988 246.045 190.988 248.227 190.988C255.032 190.988 261.966 190.344 268.642 188.798C282.124 185.707 295.22 180.813 308.83 178.237C312.425 177.464 316.148 176.949 319.743 176.305V175.919C316.02 176.434 312.425 177.078 308.83 177.851C295.22 180.427 282.252 185.45 268.642 188.412H268.899Z" fill="#DADADA"/>
<path d="M301.768 186.609C290.341 189.057 279.17 192.534 267.743 194.981C252.593 198.458 236.543 197.943 221.521 201.292C218.054 202.065 214.588 202.966 211.121 203.996H212.533C215.487 203.095 218.44 202.322 221.521 201.678C236.672 198.33 252.593 198.845 267.743 195.367C279.17 192.92 290.341 189.572 301.768 186.996C302.41 186.867 303.566 186.609 304.208 186.481C309.472 185.322 314.736 184.42 320 183.518V183.132C314.736 184.034 309.472 184.935 304.208 186.094C303.566 186.223 302.41 186.481 301.768 186.609Z" fill="#DADADA"/>
<path d="M300.483 194.079C299.841 194.208 298.685 194.465 298.043 194.594L296.888 194.852C284.69 197.557 272.621 200.648 260.423 202.966C258.626 203.352 256.957 203.61 255.159 203.867H257.342C258.369 203.739 259.396 203.481 260.423 203.352C272.621 201.034 284.69 197.943 296.888 195.238L298.043 194.981C298.685 194.852 299.841 194.594 300.483 194.465C301.125 194.337 302.28 194.079 302.922 193.95C308.572 192.791 314.221 191.632 319.999 190.602V190.215C314.349 191.246 308.572 192.405 302.922 193.564C302.28 193.564 301.125 193.95 300.483 194.079Z" fill="#DADADA"/>
<path d="M304.207 200.261C302.667 200.519 300.869 200.905 299.328 201.292C295.22 202.193 291.24 203.095 287.131 203.867H288.928C292.395 203.095 295.862 202.322 299.328 201.678C300.869 201.292 302.667 201.034 304.207 200.648C305.235 200.39 306.775 200.133 307.802 199.875C311.398 199.102 314.993 198.329 318.716 197.685C318.716 197.557 318.844 197.428 318.973 197.299C315.249 198.072 311.526 198.845 307.931 199.617C306.904 199.875 305.363 200.133 304.336 200.39L304.207 200.261Z" fill="#DADADA"/>
<path d="M8 138.569V138.956L320 72.4987V72.1123L8 138.569Z" fill="#DADADA"/>
<path d="M8 145.396L320 78.6811V78.2947L8 145.009V145.396Z" fill="#DADADA"/>
<path d="M79.002 74.5593H48.3156C45.9047 74.5593 43.9502 76.5198 43.9502 78.9383V99.6739C43.9502 102.092 45.9047 104.053 48.3156 104.053H79.002C81.413 104.053 83.3675 102.092 83.3675 99.6739V78.9383C83.3675 76.5198 81.413 74.5593 79.002 74.5593Z" fill="url(#paint0_linear_2014_163634)"/>
<path d="M79.0029 74.558C81.4424 74.558 83.3683 76.4899 83.3683 78.937V99.8014C83.3683 102.248 81.4424 104.18 79.0029 104.18H48.1881C45.7486 104.18 43.8226 102.248 43.8226 99.8014V78.937C43.8226 76.4899 45.7486 74.558 48.1881 74.558H79.0029ZM79.0029 73.9141H48.1881C45.4918 73.9141 43.1807 76.1035 43.1807 78.937V99.8014C43.1807 102.506 45.3634 104.824 48.1881 104.824H79.0029C81.6992 104.824 84.0103 102.635 84.0103 99.8014V78.937C84.0103 76.2323 81.8276 73.9141 79.0029 73.9141Z" fill="#C4C4C4"/>
<path d="M71.9418 84.9918C71.685 85.8933 71.1714 87.8252 71.1714 89.2419C71.1714 90.6586 71.685 92.5905 71.9418 93.4921C71.9418 93.6209 72.0702 93.8785 72.1985 94.0072C72.0702 94.136 71.9418 94.2648 71.9418 94.5224C71.685 95.5528 71.1714 97.6134 71.1714 99.2877C71.1714 100.962 71.1714 99.9317 71.1714 100.189C70.2726 100.189 67.7047 100.704 64.4948 100.704C61.285 100.704 58.3319 100.318 57.4331 100.189C57.4331 99.9317 57.4331 99.5453 57.4331 99.2877C57.4331 97.6134 56.9195 95.5528 56.6628 94.5224C56.6628 94.2648 56.5344 94.136 56.2776 94.0072C56.2776 94.0072 56.5344 93.7497 56.5344 93.6209C56.7911 92.7193 57.3047 90.7874 57.3047 89.3707C57.3047 87.954 56.7911 86.0221 56.5344 85.1206C56.5344 84.863 56.406 84.7342 56.2776 84.6054C56.406 84.4766 56.5344 84.3478 56.5344 84.0902C56.7911 82.9311 57.3047 80.8704 57.3047 79.1961C57.3047 77.5218 57.3047 78.6809 57.3047 78.4233C58.3319 78.2946 61.1566 77.9082 64.4948 77.9082C67.8331 77.9082 70.7862 78.2946 71.685 78.4233C71.5566 78.8097 71.2998 79.3249 71.1714 79.7113C71.1714 79.8401 71.1714 80.0977 71.4282 80.0977C71.5566 80.0977 71.685 80.0977 71.8134 79.8401C72.7121 77.393 73.8677 75.7187 74.7665 74.5596H73.8677C73.2257 75.3323 72.5837 76.3627 71.9418 77.6506C71.2998 77.6506 68.0899 77.1354 64.4948 77.1354C60.8998 77.1354 58.2035 77.5218 57.3047 77.6506C57.0479 76.4915 56.5344 75.3323 56.2776 74.5596H55.5072C55.8924 75.4611 56.7911 77.5218 56.7911 79.1961C56.7911 80.8704 56.2776 82.8023 56.0208 83.9614C56.0208 84.219 55.764 84.3478 55.5072 84.3478H43.9516V84.9918H55.5072C55.764 84.9918 55.8924 85.1206 55.8924 85.3781C56.1492 86.2797 56.6628 88.0828 56.6628 89.4995C56.6628 90.9162 56.1492 92.7193 55.8924 93.6209C55.8924 93.7497 55.6356 93.8785 55.5072 93.8785H43.8232V94.6512H55.5072C55.764 94.6512 55.8924 94.78 55.8924 95.0376C56.1492 96.0679 56.6628 97.9998 56.6628 99.6741C56.6628 101.348 55.764 103.538 55.3788 104.311H56.1492C56.5344 103.538 56.9195 102.379 57.1763 101.22C58.2035 101.348 61.1566 101.735 64.3665 101.735C67.5763 101.735 70.2726 101.348 71.1714 101.22C71.4282 102.379 71.9418 103.538 72.1985 104.311H72.9689C72.5837 103.409 71.685 101.348 71.685 99.6741C71.685 97.9998 72.1986 96.0679 72.4553 95.0376C72.4553 94.78 72.7121 94.6512 72.9689 94.6512H83.3689V94.0072H72.9689C72.7121 94.0072 72.5837 93.8785 72.5837 93.6209C72.3269 92.7193 71.8134 90.9162 71.8134 89.4995C71.8134 88.0828 72.3269 86.2797 72.5837 85.3781C72.5837 85.1206 72.8405 84.9918 73.0973 84.9918H83.4973V84.3478H73.0973C72.5837 84.3478 72.1985 84.7342 71.9418 85.1206V84.9918Z" fill="#808080"/>
<path d="M33.7303 169.261C31.0082 169.261 29.3177 167.331 29.3177 164.23V164.217C29.3177 161.102 31.0016 159.178 33.7236 159.178C35.9066 159.178 37.5638 160.563 37.7901 162.526V162.579H36.1063L36.0996 162.553C35.8534 161.415 34.9349 160.663 33.7236 160.663C32.0931 160.663 31.0748 162.027 31.0748 164.21V164.223C31.0748 166.413 32.0931 167.777 33.7303 167.777C34.9482 167.777 35.8534 167.098 36.0996 166.04L36.1063 166.007H37.7901V166.053C37.5372 167.977 35.9465 169.261 33.7303 169.261ZM42.5291 169.168C40.3461 169.168 39.0284 167.744 39.0284 165.388V165.375C39.0284 163.039 40.3661 161.608 42.5291 161.608C44.6988 161.608 46.0299 163.032 46.0299 165.375V165.388C46.0299 167.744 44.7054 169.168 42.5291 169.168ZM42.5291 167.824C43.6805 167.824 44.3327 166.925 44.3327 165.395V165.381C44.3327 163.85 43.6739 162.945 42.5291 162.945C41.3777 162.945 40.7189 163.85 40.7189 165.381V165.395C40.7189 166.925 41.3777 167.824 42.5291 167.824ZM50.2964 169.168C48.4462 169.168 47.3281 168.316 47.1883 167.085V167.072H48.8322L48.8388 167.085C49.0119 167.591 49.4977 167.944 50.323 167.944C51.1483 167.944 51.7206 167.571 51.7206 167.025V167.012C51.7206 166.586 51.4012 166.306 50.6025 166.127L49.4245 165.86C48.0402 165.554 47.3813 164.902 47.3813 163.831V163.824C47.3813 162.513 48.5793 161.608 50.2964 161.608C52.0667 161.608 53.1249 162.486 53.2314 163.664V163.677H51.674L51.6674 163.657C51.5476 163.198 51.0684 162.826 50.2897 162.826C49.551 162.826 49.0185 163.185 49.0185 163.731V163.737C49.0185 164.163 49.3247 164.423 50.11 164.603L51.288 164.862C52.7123 165.182 53.3845 165.787 53.3845 166.845V166.859C53.3845 168.243 52.0867 169.168 50.2964 169.168ZM54.909 169.022V161.747H56.5662V162.879H56.6793C56.9921 162.067 57.7242 161.608 58.6759 161.608C59.6609 161.608 60.3797 162.113 60.6925 162.919H60.8057C61.1584 162.127 61.997 161.608 63.0086 161.608C64.4728 161.608 65.3513 162.506 65.3513 164.017V169.022H63.6941V164.423C63.6941 163.478 63.2615 162.999 62.3763 162.999C61.5111 162.999 60.9521 163.644 60.9521 164.476V169.022H59.2949V164.303C59.2949 163.498 58.7957 162.999 57.9838 162.999C57.1651 162.999 56.5662 163.691 56.5662 164.596V169.022H54.909ZM70.31 169.168C68.127 169.168 66.8092 167.744 66.8092 165.388V165.375C66.8092 163.039 68.147 161.608 70.31 161.608C72.4796 161.608 73.8107 163.032 73.8107 165.375V165.388C73.8107 167.744 72.4863 169.168 70.31 169.168ZM70.31 167.824C71.4614 167.824 72.1136 166.925 72.1136 165.395V165.381C72.1136 163.85 71.4547 162.945 70.31 162.945C69.1586 162.945 68.4997 163.85 68.4997 165.381V165.395C68.4997 166.925 69.1586 167.824 70.31 167.824ZM78.9894 169.022V159.418H80.7065V163.857H80.8196L84.6066 159.418H86.5766L82.956 163.604L86.8627 169.022H84.7663L81.7314 164.742L80.7065 165.934V169.022H78.9894ZM88.0944 169.022V161.747H89.7516V162.865H89.8647C90.111 162.087 90.7765 161.628 91.7349 161.628C91.9878 161.628 92.2474 161.661 92.4071 161.707V163.192C92.1409 163.138 91.868 163.098 91.5818 163.098C90.477 163.098 89.7516 163.757 89.7516 164.796V169.022H88.0944ZM95.5089 169.142C94.1246 169.142 93.1196 168.29 93.1196 166.965V166.952C93.1196 165.654 94.1112 164.895 95.8816 164.789L97.7518 164.676V164.05C97.7518 163.325 97.2792 162.925 96.3874 162.925C95.6287 162.925 95.1362 163.198 94.9698 163.677L94.9631 163.704H93.3991L93.4058 163.644C93.5655 162.42 94.7369 161.608 96.4673 161.608C98.3374 161.608 99.389 162.513 99.389 164.05V169.022H97.7518V168.023H97.6386C97.2393 168.729 96.4673 169.142 95.5089 169.142ZM94.7568 166.885C94.7568 167.504 95.2826 167.87 96.0147 167.87C97.013 167.87 97.7518 167.218 97.7518 166.353V165.767L96.1145 165.874C95.1894 165.934 94.7568 166.273 94.7568 166.872V166.885ZM101.233 169.022V161.747H102.89V162.879H103.003C103.316 162.067 104.048 161.608 105 161.608C105.985 161.608 106.704 162.113 107.016 162.919H107.13C107.482 162.127 108.321 161.608 109.333 161.608C110.797 161.608 111.675 162.506 111.675 164.017V169.022H110.018V164.423C110.018 163.478 109.585 162.999 108.7 162.999C107.835 162.999 107.276 163.644 107.276 164.476V169.022H105.619V164.303C105.619 163.498 105.12 162.999 104.308 162.999C103.489 162.999 102.89 163.691 102.89 164.596V169.022H101.233ZM116.607 169.168C114.444 169.168 113.133 167.717 113.133 165.401V165.395C113.133 163.105 114.458 161.608 116.527 161.608C118.597 161.608 119.875 163.058 119.875 165.255V165.801H114.79C114.81 167.105 115.516 167.864 116.641 167.864C117.539 167.864 118.052 167.411 118.211 167.078L118.231 167.032H119.809L119.789 167.092C119.556 168.03 118.584 169.168 116.607 169.168ZM116.547 162.905C115.622 162.905 114.93 163.531 114.804 164.689H118.258C118.145 163.498 117.473 162.905 116.547 162.905ZM121.386 169.022V161.747H123.043V162.865H123.157C123.403 162.087 124.068 161.628 125.027 161.628C125.28 161.628 125.539 161.661 125.699 161.707V163.192C125.433 163.138 125.16 163.098 124.874 163.098C123.769 163.098 123.043 163.757 123.043 164.796V169.022H121.386Z" fill="#353A44"/>
<path d="M292 150.315C295.59 150.315 298.5 153.225 298.5 156.815V172.815C298.5 176.405 295.59 179.315 292 179.315H154C150.41 179.315 147.5 176.405 147.5 172.815V156.815C147.5 153.225 150.41 150.315 154 150.315H292Z" fill="white"/>
<path d="M292 150.315C295.59 150.315 298.5 153.225 298.5 156.815V172.815C298.5 176.405 295.59 179.315 292 179.315H154C150.41 179.315 147.5 176.405 147.5 172.815V156.815C147.5 153.225 150.41 150.315 154 150.315H292Z" stroke="#D8DEE4"/>
<path d="M160.232 169.815L156.821 159.951H158.763L161.203 167.778H161.319L163.76 159.951H165.708L162.297 169.815H160.232ZM167.957 161.093C167.397 161.093 166.939 160.648 166.939 160.088C166.939 159.534 167.397 159.083 167.957 159.083C168.511 159.083 168.969 159.534 168.969 160.088C168.969 160.648 168.511 161.093 167.957 161.093ZM167.103 169.815V162.344H168.805V169.815H167.103ZM173.946 169.966C171.724 169.966 170.378 168.475 170.378 166.096V166.09C170.378 163.738 171.738 162.2 173.864 162.2C175.99 162.2 177.302 163.69 177.302 165.946V166.507H172.08C172.1 167.846 172.825 168.626 173.98 168.626C174.903 168.626 175.429 168.161 175.593 167.819L175.614 167.771H177.234L177.213 167.833C176.974 168.797 175.976 169.966 173.946 169.966ZM173.884 163.533C172.934 163.533 172.223 164.176 172.093 165.365H175.641C175.525 164.141 174.835 163.533 173.884 163.533ZM180.181 169.815L178.157 162.344H179.866L181.11 167.956H181.227L182.662 162.344H184.282L185.731 167.956H185.848L187.085 162.344H188.773L186.75 169.815H184.966L183.51 164.401H183.394L181.944 169.815H180.181ZM196.895 169.966C194.646 169.966 193.32 168.51 193.32 166.069V166.055C193.32 163.642 194.639 162.2 196.888 162.2C198.809 162.2 199.958 163.266 200.149 164.811V164.839H198.543L198.536 164.818C198.379 164.094 197.825 163.574 196.895 163.574C195.733 163.574 195.05 164.49 195.05 166.055V166.069C195.05 167.655 195.74 168.585 196.895 168.585C197.777 168.585 198.317 168.181 198.529 167.395L198.543 167.368L200.149 167.361L200.136 167.416C199.889 168.947 198.789 169.966 196.895 169.966ZM203.656 169.938C202.235 169.938 201.202 169.063 201.202 167.703V167.689C201.202 166.356 202.221 165.577 204.039 165.468L205.96 165.351V164.709C205.96 163.964 205.475 163.553 204.559 163.553C203.779 163.553 203.274 163.834 203.103 164.326L203.096 164.353H201.489L201.496 164.292C201.66 163.034 202.863 162.2 204.641 162.2C206.562 162.2 207.642 163.13 207.642 164.709V169.815H205.96V168.79H205.844C205.434 169.514 204.641 169.938 203.656 169.938ZM202.884 167.621C202.884 168.257 203.424 168.633 204.176 168.633C205.201 168.633 205.96 167.963 205.96 167.074V166.472L204.279 166.582C203.328 166.643 202.884 166.992 202.884 167.607V167.621ZM209.536 169.815V162.344H211.238V163.492H211.354C211.607 162.692 212.291 162.22 213.275 162.22C213.535 162.22 213.801 162.255 213.965 162.302V163.827C213.692 163.772 213.412 163.731 213.118 163.731C211.983 163.731 211.238 164.408 211.238 165.474V169.815H209.536ZM217.712 169.938C215.839 169.938 214.649 168.455 214.649 166.09V166.076C214.649 163.697 215.818 162.22 217.712 162.22C218.737 162.22 219.592 162.726 219.981 163.533H220.098V159.452H221.807V169.815H220.098V168.646H219.981C219.571 169.46 218.765 169.938 217.712 169.938ZM218.245 168.503C219.407 168.503 220.125 167.587 220.125 166.09V166.076C220.125 164.579 219.4 163.656 218.245 163.656C217.09 163.656 216.379 164.572 216.379 166.076V166.09C216.379 167.594 217.083 168.503 218.245 168.503ZM230.072 169.938C228.199 169.938 227.01 168.455 227.01 166.09V166.076C227.01 163.697 228.179 162.22 230.072 162.22C231.097 162.22 231.952 162.726 232.342 163.533H232.458V159.452H234.167V169.815H232.458V168.646H232.342C231.931 169.46 231.125 169.938 230.072 169.938ZM230.605 168.503C231.767 168.503 232.485 167.587 232.485 166.09V166.076C232.485 164.579 231.761 163.656 230.605 163.656C229.45 163.656 228.739 164.572 228.739 166.076V166.09C228.739 167.594 229.443 168.503 230.605 168.503ZM239.356 169.966C237.134 169.966 235.787 168.475 235.787 166.096V166.09C235.787 163.738 237.148 162.2 239.274 162.2C241.4 162.2 242.712 163.69 242.712 165.946V166.507H237.489C237.51 167.846 238.235 168.626 239.39 168.626C240.313 168.626 240.839 168.161 241.003 167.819L241.024 167.771H242.644L242.623 167.833C242.384 168.797 241.386 169.966 239.356 169.966ZM239.294 163.533C238.344 163.533 237.633 164.176 237.503 165.365H241.051C240.935 164.141 240.244 163.533 239.294 163.533ZM247.204 169.849C245.488 169.849 244.784 169.275 244.784 167.833V163.663H243.622V162.344H244.784V160.511H246.513V162.344H248.092V163.663H246.513V167.429C246.513 168.175 246.807 168.489 247.518 168.489C247.757 168.489 247.887 168.482 248.092 168.462V169.774C247.846 169.822 247.532 169.849 247.204 169.849ZM251.675 169.938C250.253 169.938 249.221 169.063 249.221 167.703V167.689C249.221 166.356 250.239 165.577 252.058 165.468L253.979 165.351V164.709C253.979 163.964 253.493 163.553 252.577 163.553C251.798 163.553 251.292 163.834 251.121 164.326L251.114 164.353H249.508L249.515 164.292C249.679 163.034 250.882 162.2 252.659 162.2C254.58 162.2 255.66 163.13 255.66 164.709V169.815H253.979V168.79H253.862C253.452 169.514 252.659 169.938 251.675 169.938ZM250.902 167.621C250.902 168.257 251.442 168.633 252.194 168.633C253.22 168.633 253.979 167.963 253.979 167.074V166.472L252.297 166.582C251.347 166.643 250.902 166.992 250.902 167.607V167.621ZM258.429 161.093C257.869 161.093 257.411 160.648 257.411 160.088C257.411 159.534 257.869 159.083 258.429 159.083C258.983 159.083 259.441 159.534 259.441 160.088C259.441 160.648 258.983 161.093 258.429 161.093ZM257.575 169.815V162.344H259.277V169.815H257.575ZM261.287 169.815V159.452H262.989V169.815H261.287ZM267.816 169.966C265.915 169.966 264.767 169.091 264.623 167.826V167.812H266.312L266.319 167.826C266.496 168.345 266.995 168.708 267.843 168.708C268.691 168.708 269.279 168.325 269.279 167.764V167.751C269.279 167.313 268.95 167.026 268.13 166.842L266.92 166.568C265.498 166.254 264.821 165.584 264.821 164.483V164.476C264.821 163.13 266.052 162.2 267.816 162.2C269.634 162.2 270.721 163.102 270.83 164.312V164.326H269.231L269.224 164.305C269.101 163.834 268.609 163.451 267.809 163.451C267.05 163.451 266.503 163.82 266.503 164.381V164.387C266.503 164.825 266.818 165.092 267.624 165.276L268.834 165.543C270.297 165.871 270.988 166.493 270.988 167.58V167.594C270.988 169.015 269.654 169.966 267.816 169.966Z" fill="#353A44"/>
<path d="M284 159.565C283.689 159.565 283.438 159.817 283.438 160.128C283.438 160.438 283.689 160.69 284 160.69C285.318 160.69 286.606 161.353 287.41 162.543C288.023 163.451 288.158 164.691 287.866 165.904C287.651 166.798 287.215 167.632 286.625 168.26V166.503C286.625 166.192 286.373 165.94 286.062 165.94C285.752 165.94 285.5 166.192 285.5 166.503V169.503C285.5 169.813 285.752 170.065 286.062 170.065H288.875C289.186 170.065 289.438 169.813 289.438 169.503C289.438 169.192 289.186 168.94 288.875 168.94H287.528C288.225 168.165 288.716 167.183 288.96 166.167C289.305 164.734 289.177 163.149 288.342 161.913C287.332 160.418 285.697 159.565 284 159.565Z" fill="#474E5A"/>
<path d="M281 163.128C281 163.438 281.252 163.69 281.562 163.69C281.873 163.69 282.125 163.438 282.125 163.128V160.128C282.125 159.817 281.873 159.565 281.562 159.565H278.75C278.439 159.565 278.188 159.817 278.188 160.128C278.188 160.438 278.439 160.69 278.75 160.69H280.097C279.4 161.466 278.909 162.448 278.665 163.463C278.32 164.897 278.448 166.481 279.283 167.717C280.293 169.212 281.928 170.065 283.625 170.065C283.936 170.065 284.187 169.813 284.187 169.503C284.187 169.192 283.936 168.94 283.625 168.94C282.307 168.94 281.019 168.278 280.215 167.088C279.602 166.179 279.467 164.94 279.759 163.726C279.974 162.832 280.41 161.998 281 161.37V163.128Z" fill="#474E5A"/>
<g filter="url(#filter2_d_2014_163634)">
<path d="M148 156.815C148 153.501 150.686 150.815 154 150.815H292C295.314 150.815 298 153.501 298 156.815V172.815C298 176.129 295.314 178.815 292 178.815H154C150.686 178.815 148 176.129 148 172.815V156.815Z" fill="white"/>
</g>
</g>
</g>
<defs>
<filter id="filter0_dd_2014_163634" x="-5.63029" y="4.1008e-05" width="339.261" height="224.313" filterUnits="userSpaceOnUse" color-interpolation-filters="sRGB">
<feFlood flood-opacity="0" result="BackgroundImageFix"/>
<feColorMatrix in="SourceAlpha" type="matrix" values="0 0 0 0 0 0 0 0 0 0 0 0 0 0 0 0 0 0 127 0" result="hardAlpha"/>
<feOffset dy="2.92078"/>
<feGaussianBlur stdDeviation="2.92078"/>
<feColorMatrix type="matrix" values="0 0 0 0 0 0 0 0 0 0 0 0 0 0 0 0 0 0 0.12 0"/>
<feBlend mode="normal" in2="BackgroundImageFix" result="effect1_dropShadow_2014_163634"/>
<feColorMatrix in="SourceAlpha" type="matrix" values="0 0 0 0 0 0 0 0 0 0 0 0 0 0 0 0 0 0 127 0" result="hardAlpha"/>
<feOffset dy="6.81514"/>
<feGaussianBlur stdDeviation="6.81514"/>
<feColorMatrix type="matrix" values="0 0 0 0 0.188235 0 0 0 0 0.192157 0 0 0 0 0.239216 0 0 0 0.08 0"/>
<feBlend mode="normal" in2="effect1_dropShadow_2014_163634" result="effect2_dropShadow_2014_163634"/>
<feBlend mode="normal" in="SourceGraphic" in2="effect2_dropShadow_2014_163634" result="shape"/>
</filter>
<filter id="filter1_dd_2014_163634" x="-5.63029" y="4.1008e-05" width="339.261" height="224.313" filterUnits="userSpaceOnUse" color-interpolation-filters="sRGB">
<feFlood flood-opacity="0" result="BackgroundImageFix"/>
<feColorMatrix in="SourceAlpha" type="matrix" values="0 0 0 0 0 0 0 0 0 0 0 0 0 0 0 0 0 0 127 0" result="hardAlpha"/>
<feOffset dy="2.92078"/>
<feGaussianBlur stdDeviation="2.92078"/>
<feColorMatrix type="matrix" values="0 0 0 0 0 0 0 0 0 0 0 0 0 0 0 0 0 0 0.12 0"/>
<feBlend mode="normal" in2="BackgroundImageFix" result="effect1_dropShadow_2014_163634"/>
<feColorMatrix in="SourceAlpha" type="matrix" values="0 0 0 0 0 0 0 0 0 0 0 0 0 0 0 0 0 0 127 0" result="hardAlpha"/>
<feOffset dy="6.81514"/>
<feGaussianBlur stdDeviation="6.81514"/>
<feColorMatrix type="matrix" values="0 0 0 0 0.188235 0 0 0 0 0.192157 0 0 0 0 0.239216 0 0 0 0.08 0"/>
<feBlend mode="normal" in2="effect1_dropShadow_2014_163634" result="effect2_dropShadow_2014_163634"/>
<feBlend mode="normal" in="SourceGraphic" in2="effect2_dropShadow_2014_163634" result="shape"/>
</filter>
<filter id="filter2_d_2014_163634" x="147" y="150.815" width="152" height="30" filterUnits="userSpaceOnUse" color-interpolation-filters="sRGB">
<feFlood flood-opacity="0" result="BackgroundImageFix"/>
<feColorMatrix in="SourceAlpha" type="matrix" values="0 0 0 0 0 0 0 0 0 0 0 0 0 0 0 0 0 0 127 0" result="hardAlpha"/>
<feOffset dy="1"/>
<feGaussianBlur stdDeviation="0.5"/>
<feComposite in2="hardAlpha" operator="out"/>
<feColorMatrix type="matrix" values="0 0 0 0 0.129412 0 0 0 0 0.145098 0 0 0 0 0.172549 0 0 0 0.16 0"/>
<feBlend mode="normal" in2="BackgroundImageFix" result="effect1_dropShadow_2014_163634"/>
<feBlend mode="normal" in="SourceGraphic" in2="effect1_dropShadow_2014_163634" result="shape"/>
</filter>
<linearGradient id="paint0_linear_2014_163634" x1="78.7453" y1="64.1271" x2="-2.12513" y2="198.624" gradientUnits="userSpaceOnUse">
<stop stop-color="#E0E0E0"/>
<stop offset="1" stop-color="#949494"/>
</linearGradient>
<clipPath id="clip0_2014_163634">
<path d="M8 18.4983C8 12.0459 13.2307 6.81519 19.6831 6.81519H308.317C314.769 6.81519 320 12.0459 320 18.4983V192.185C320 198.637 314.769 203.868 308.317 203.868H19.6831C13.2307 203.868 8 198.637 8 192.185V18.4983Z" fill="white"/>
</clipPath>
</defs>
</svg>
