<svg width="20" height="20" viewBox="0 0 20 20" fill="none" xmlns="http://www.w3.org/2000/svg">
<path fill-rule="evenodd" clip-rule="evenodd" d="M0 4.375C0 3.33947 0.839466 2.5 1.875 2.5H18.125C19.1605 2.5 20 3.33947 20 4.375V7.1835L20 7.1875L20 7.1915V15.625C20 16.6605 19.1605 17.5 18.125 17.5H1.875C0.839466 17.5 0 16.6605 0 15.625V4.375ZM1.875 4.375H18.125V6.25H1.875V4.375ZM18.125 8.125V15.625H1.875V8.125H18.125Z" fill="#0072E9"/>
<path fill-rule="evenodd" clip-rule="evenodd" d="M8.75 12.8125C8.75 12.2947 9.16973 11.875 9.6875 11.875H15.3125C15.8303 11.875 16.25 12.2947 16.25 12.8125C16.25 13.3303 15.8303 13.75 15.3125 13.75H9.6875C9.16973 13.75 8.75 13.3303 8.75 12.8125Z" fill="#0072E9"/>
</svg>
