<svg width="20" height="20" viewBox="0 0 20 20" fill="none" xmlns="http://www.w3.org/2000/svg">
<path d="M14.6875 1.875C15.8956 1.875 16.875 2.85438 16.875 4.0625V15C16.875 15.5178 17.2947 15.9375 17.8125 15.9375C18.3303 15.9375 18.75 15.5178 18.75 15V4.0625C18.75 1.81884 16.9312 0 14.6875 0H6.25C5.73223 0 5.3125 0.419733 5.3125 0.9375C5.3125 1.45527 5.73223 1.875 6.25 1.875H14.6875Z" fill="#0072E9"/>
<path d="M3.125 17.2626L3.60002 16.8555C4.34411 16.2177 5.4216 16.1526 6.23704 16.6962L8.125 17.9549L10.013 16.6962C10.8284 16.1526 11.9059 16.2177 12.65 16.8555L13.125 17.2626V6.25C13.125 5.90482 12.8452 5.625 12.5 5.625H3.75C3.40482 5.625 3.125 5.90482 3.125 6.25V7.8125C3.125 8.33027 2.70527 8.75 2.1875 8.75C1.66973 8.75 1.25 8.33027 1.25 7.8125V6.25C1.25 4.86929 2.36929 3.75 3.75 3.75H12.5C13.8807 3.75 15 4.86929 15 6.25V18.4956C15 18.8099 14.8816 19.1126 14.6685 19.3435L14.2923 19.7511C14.1458 19.9098 13.9397 20 13.7237 20C13.539 20 13.3604 19.9339 13.2202 19.8137L11.4297 18.2791C11.3234 18.188 11.1695 18.1787 11.053 18.2563L8.69752 19.8267C8.52797 19.9397 8.32877 20 8.125 20C7.92123 20 7.72203 19.9397 7.55248 19.8267L5.19697 18.2563C5.08048 18.1787 4.92656 18.188 4.82026 18.2791L3.02982 19.8137C2.88958 19.9339 2.71097 20 2.52627 20C2.31032 20 2.10419 19.9098 1.95772 19.7511L1.5815 19.3435C1.36835 19.1126 1.25 18.8099 1.25 18.4956V13.4375C1.25 11.539 2.78902 10 4.6875 10H7.91236L6.79934 8.74785C6.45535 8.36087 6.49021 7.7683 6.87719 7.42431C7.26418 7.08033 7.85675 7.11519 8.20073 7.50217L10.7007 10.3147C11.0042 10.6561 11.0174 11.1665 10.7321 11.5232L8.2321 14.6482C7.90865 15.0525 7.31869 15.118 6.91438 14.7946C6.51007 14.4711 6.44452 13.8812 6.76797 13.4769L8.04946 11.875H4.6875C3.82456 11.875 3.125 12.5746 3.125 13.4375V17.2626Z" fill="#0072E9"/>
</svg>
