<svg width="20" height="20" viewBox="0 0 20 20" fill="none" xmlns="http://www.w3.org/2000/svg">
<path fill-rule="evenodd" clip-rule="evenodd" d="M10 3.125C5.51269 3.125 1.875 6.76269 1.875 11.25C1.875 12.8627 2.34319 14.3624 3.15196 15.625H16.848C17.6568 14.3624 18.125 12.8627 18.125 11.25C18.125 6.76269 14.4873 3.125 10 3.125ZM17.8067 17.5C19.1791 15.788 20 13.6149 20 11.25C20 5.72715 15.5228 1.25 10 1.25C4.47715 1.25 0 5.72715 0 11.25C0 13.6149 0.820898 15.788 2.19329 17.5H17.8067Z" fill="#0072E9"/>
<path d="M13.2219 7.10981C13.4121 6.9328 13.6548 6.84631 13.8964 6.8494C14.1412 6.85252 14.3848 6.94769 14.571 7.13389C14.7619 7.32479 14.8571 7.57601 14.8556 7.82707C14.8541 8.06245 14.7676 8.29769 14.5951 8.48295L10.1195 13.2901C9.87592 13.5517 9.54421 13.6802 9.2141 13.6741C8.91341 13.6686 8.61404 13.5513 8.38382 13.3211C8.14723 13.0845 8.02991 12.7748 8.03055 12.4658C8.03122 12.144 8.1598 11.8228 8.41481 11.5854L13.2219 7.10981Z" fill="#0072E9"/>
</svg>
