<svg width="20" height="20" viewBox="0 0 20 20" fill="none" xmlns="http://www.w3.org/2000/svg">
<path d="M14.0754 10.2505C13.696 9.89819 13.1028 9.92017 12.7505 10.2996C12.3982 10.679 12.4202 11.2722 12.7996 11.6245L15.4251 14.0625H2.1875C1.66973 14.0625 1.25 14.4822 1.25 15C1.25 15.5178 1.66973 15.9375 2.1875 15.9375H15.4251L12.7996 18.3755C12.4202 18.7278 12.3982 19.321 12.7505 19.7004C12.9343 19.8983 13.1835 19.999 13.4338 20C13.6634 20.0009 13.8939 19.9181 14.0754 19.7495L18.4504 15.687C18.6415 15.5096 18.75 15.2607 18.75 15C18.75 14.7393 18.6415 14.4904 18.4504 14.313L14.0754 10.2505Z" fill="#0072E9"/>
<path d="M7.20042 1.6245C7.57984 1.27218 7.60181 0.678997 7.24949 0.299581C7.06606 0.102034 6.81732 0.00138613 6.56746 1.42182e-05C6.33743 -0.00124881 6.10645 0.0816317 5.92458 0.25051L1.55238 4.31041C1.36647 4.48172 1.25 4.72726 1.25 5C1.25 5.27199 1.36583 5.51693 1.55085 5.68818L5.92458 9.7495C6.30399 10.1018 6.89718 10.0798 7.24949 9.70043C7.60181 9.32101 7.57984 8.72783 7.20042 8.37551L4.57487 5.9375H17.8125C18.3303 5.9375 18.75 5.51777 18.75 5C18.75 4.48223 18.3303 4.0625 17.8125 4.0625H4.57488L7.20042 1.6245Z" fill="#0072E9"/>
</svg>
