<svg width="32" height="32" viewBox="0 0 32 32" fill="none" xmlns="http://www.w3.org/2000/svg">
<rect width="32" height="32" rx="8" fill="#F5F6F8"/>
<path d="M9 10C9 9.58579 9.33579 9.25 9.75 9.25H17.25C17.6642 9.25 18 9.58579 18 10C18 10.4142 17.6642 10.75 17.25 10.75H9.75C9.33579 10.75 9 10.4142 9 10Z" fill="#474E5A"/>
<path d="M9 18C9 17.5858 9.33579 17.25 9.75 17.25H14.75C15.1642 17.25 15.5 17.5858 15.5 18C15.5 18.4142 15.1642 18.75 14.75 18.75H9.75C9.33579 18.75 9 18.4142 9 18Z" fill="#474E5A"/>
<path d="M11.25 13.25C10.8358 13.25 10.5 13.5858 10.5 14C10.5 14.4142 10.8358 14.75 11.25 14.75H18.75C19.1642 14.75 19.5 14.4142 19.5 14C19.5 13.5858 19.1642 13.25 18.75 13.25H11.25Z" fill="#474E5A"/>
<path d="M10.5 22C10.5 21.5858 10.8358 21.25 11.25 21.25H15.25C15.6642 21.25 16 21.5858 16 22C16 22.4142 15.6642 22.75 15.25 22.75H11.25C10.8358 22.75 10.5 22.4142 10.5 22Z" fill="#474E5A"/>
<path fill-rule="evenodd" clip-rule="evenodd" d="M24 19.5C24 21.433 22.433 23 20.5 23C18.567 23 17 21.433 17 19.5C17 17.567 18.567 16 20.5 16C22.433 16 24 17.567 24 19.5ZM22.5 19.5C22.5 20.6046 21.6046 21.5 20.5 21.5C19.3954 21.5 18.5 20.6046 18.5 19.5C18.5 18.3954 19.3954 17.5 20.5 17.5C21.6046 17.5 22.5 18.3954 22.5 19.5Z" fill="#474E5A"/>
</svg>
