<svg width="32" height="26" viewBox="0 0 32 26" fill="none" xmlns="http://www.w3.org/2000/svg">
<rect width="32" height="32" rx="8" fill="#F5F6F8"/>
<path fill-rule="evenodd" clip-rule="evenodd" d="M8 11.8841C8 11.0835 8.54501 10.4081 9.3057 10.2044L9.32368 10.1996L18.5518 8.2124C18.7019 8.17483 18.8523 8.15737 19 8.15823C19.927 8.16363 20.75 8.89053 20.75 9.89786V12.4998H21.5C22.8807 12.4998 24 13.619 24 14.9998V21.4998C24 22.8805 22.8807 23.9998 21.5 23.9998H10.5C9.11929 23.9998 8 22.8805 8 21.4998V11.8841ZM18.9127 9.66835C19.1118 9.61642 19.25 9.7586 19.25 9.89786V12.4998H10.5C10.1444 12.4998 9.80623 12.574 9.5 12.7078V11.8841C9.5 11.7922 9.5588 11.695 9.68102 11.657L18.8971 9.67243L18.9127 9.66835ZM9.5 14.9998V21.4998C9.5 22.052 9.94772 22.4998 10.5 22.4998H21.5C22.0523 22.4998 22.5 22.052 22.5 21.4998V14.9998C22.5 14.4475 22.0523 13.9998 21.5 13.9998H10.5C9.94772 13.9998 9.5 14.4475 9.5 14.9998Z" fill="#474E5A"/>
<path fill-rule="evenodd" clip-rule="evenodd" d="M18.8971 9.67243L9.68102 11.657C9.5588 11.695 9.5 11.7922 9.5 11.8841V12.7078C9.80623 12.574 10.1444 12.4998 10.5 12.4998H19.25V9.89786C19.25 9.7586 19.1118 9.61642 18.9127 9.66835M18.9127 9.66835L18.8971 9.67243L18.9127 9.66835ZM9.32368 10.1996L18.5518 8.2124C18.7019 8.17483 18.8523 8.15737 19 8.15823C19.927 8.16363 20.75 8.89053 20.75 9.89786V12.4998H21.5C22.8807 12.4998 24 13.619 24 14.9998V21.4998C24 22.8805 22.8807 23.9998 21.5 23.9998H10.5C9.11929 23.9998 8 22.8805 8 21.4998V11.8841C8 11.0835 8.54501 10.4081 9.3057 10.2044L9.32368 10.1996ZM9.5 21.4998V14.9998C9.5 14.4475 9.94772 13.9998 10.5 13.9998H21.5C22.0523 13.9998 22.5 14.4475 22.5 14.9998V21.4998C22.5 22.052 22.0523 22.4998 21.5 22.4998H10.5C9.94772 22.4998 9.5 22.052 9.5 21.4998ZM21 18.2497C21 18.9372 20.4375 19.4997 19.75 19.4997C19.0625 19.4997 18.5 18.9497 18.5 18.2497C18.5 17.5622 19.0625 16.9997 19.75 16.9997C20.4375 16.9997 21 17.5622 21 18.2497Z" fill="#474E5A"/>
</svg>
