<svg width="32" height="32" viewBox="0 0 32 32" fill="none" xmlns="http://www.w3.org/2000/svg">
<rect width="32" height="32" rx="8" fill="#F5F6F8"/>
<path fill-rule="evenodd" clip-rule="evenodd" d="M10.5 22.4H21.5C21.7209 22.4 21.9 22.2209 21.9 22C21.9 20.1222 20.3778 18.6 18.5 18.6H13.5C11.6222 18.6 10.1 20.1222 10.1 22C10.1 22.2209 10.2791 22.4 10.5 22.4ZM10.5 24H21.5C22.6046 24 23.5 23.1046 23.5 22C23.5 19.2386 21.2614 17 18.5 17H13.5C10.7386 17 8.5 19.2386 8.5 22C8.5 23.1046 9.39543 24 10.5 24Z" fill="#474E5A"/>
<path fill-rule="evenodd" clip-rule="evenodd" d="M16 14.4C17.3255 14.4 18.4 13.3255 18.4 12C18.4 10.6745 17.3255 9.6 16 9.6C14.6745 9.6 13.6 10.6745 13.6 12C13.6 13.3255 14.6745 14.4 16 14.4ZM16 16C18.2091 16 20 14.2091 20 12C20 9.79086 18.2091 8 16 8C13.7909 8 12 9.79086 12 12C12 14.2091 13.7909 16 16 16Z" fill="#474E5A"/>
</svg>
