<svg width="32" height="32" viewBox="0 0 32 32" fill="none" xmlns="http://www.w3.org/2000/svg">
<rect width="32" height="32" rx="8" fill="#F5F6F8"/>
<path d="M13 17C14.1046 17 15 17.8954 15 19V22C15 23.1046 14.1046 24 13 24H10C8.89543 24 8 23.1046 8 22V19C8 17.8954 8.89543 17 10 17H13ZM21.5 17C22.6046 17 23.5 17.8954 23.5 19V22C23.5 23.1046 22.6046 24 21.5 24H18.5C17.3954 24 16.5 23.1046 16.5 22V19C16.5 17.8954 17.3954 17 18.5 17H21.5ZM10 18.5C9.72386 18.5 9.5 18.7239 9.5 19V22C9.5 22.2761 9.72386 22.5 10 22.5H13C13.2761 22.5 13.5 22.2761 13.5 22V19C13.5 18.7239 13.2761 18.5 13 18.5H10ZM18.5 18.5C18.2239 18.5 18 18.7239 18 19V22C18 22.2761 18.2239 22.5 18.5 22.5H21.5C21.7761 22.5 22 22.2761 22 22V19C22 18.7239 21.7761 18.5 21.5 18.5H18.5ZM20.25 8C20.6642 8 21 8.33579 21 8.75V11H23.25C23.6642 11 24 11.3358 24 11.75C24 12.1642 23.6642 12.5 23.25 12.5H21V15C21 15.4142 20.6642 15.75 20.25 15.75C19.8358 15.75 19.5 15.4142 19.5 15V12.5H17C16.5858 12.5 16.25 12.1642 16.25 11.75C16.25 11.3358 16.5858 11 17 11H19.5V8.75C19.5 8.33579 19.8358 8 20.25 8ZM13 8.5C14.1046 8.5 15 9.39543 15 10.5V13.5C15 14.6046 14.1046 15.5 13 15.5H10C8.89543 15.5 8 14.6046 8 13.5V10.5C8 9.39543 8.89543 8.5 10 8.5H13ZM10 10C9.72386 10 9.5 10.2239 9.5 10.5V13.5C9.5 13.7761 9.72386 14 10 14H13C13.2761 14 13.5 13.7761 13.5 13.5V10.5C13.5 10.2239 13.2761 10 13 10H10Z" fill="#474E5A"/>
</svg>
