<svg width="148" height="45" viewBox="0 0 148 45" fill="none" xmlns="http://www.w3.org/2000/svg">
<g clip-path="url(#clip0_2239_50398)">
<path fill-rule="evenodd" clip-rule="evenodd" d="M90.9858 30.5753V36.2343H92.6528C94.0469 36.2343 95.4528 35.6023 95.4528 33.3799C95.4388 31.1366 94.1127 30.5753 92.6528 30.5753H90.9858ZM96.2685 39.4273L99.1435 44.7039H95.4952L93.2003 40.2162L92.7889 39.4642H90.9858V44.7039H87.6518V27.3206H93.0636C97.8734 27.3206 98.7651 31.3973 98.7651 33.608C98.7651 36.0577 97.565 37.8436 95.8375 38.6533C95.9915 38.9326 96.147 39.2124 96.2685 39.4273ZM3.33382 30.5753V36.2343H5.001C6.39482 36.2343 7.80105 35.6023 7.80105 33.3799C7.78699 31.1366 6.46096 30.5753 5.001 30.5753H3.33382ZM8.61645 39.4273L11.4914 44.7039H7.84348L5.54828 40.2162L5.13713 39.4642H3.33382V44.7039H0V27.3206H5.4116C10.2214 27.3206 11.1134 31.3973 11.1134 33.608C11.1134 36.0577 9.913 37.8436 8.18546 38.6533C8.33951 38.9326 8.4952 39.2124 8.61645 39.4273ZM135.996 32.1041C135.996 28.9232 138.219 27 141.601 27C144.887 27 147.158 29.2438 147.158 32.8193H143.872C143.872 30.9696 142.978 30.1067 141.553 30.1067C140.127 30.1067 139.33 30.7974 139.33 32.1041C139.33 35.5559 147.375 33.5095 147.375 39.7232C147.375 43.0273 145.056 45 141.601 45C138.146 45 135.779 42.7067 135.779 38.9835H139.113C139.113 41.0051 140.127 41.8438 141.601 41.8438C143.002 41.8438 144.041 41.1778 144.041 39.7479C144.041 36.4438 135.996 38.2686 135.996 32.1041ZM127.467 30.6V34.5451H132.082V37.5042H127.467V41.4492H133.701V44.7039H124.133V27.3206H133.701V30.6H127.467ZM112.73 41.474H114.614C116.209 41.474 117.417 40.833 117.417 37.4302V34.0521C117.417 32.1778 116.934 30.5753 114.614 30.5753H112.73V41.474ZM109.396 27.3206H115.001C118.383 27.3206 120.727 29.4412 120.727 33.6822V38.2686C120.727 42.46 118.383 44.7039 115.001 44.7039H109.396V27.3206ZM102.148 44.7041V27.3206H105.482V44.7041H102.148ZM75.6929 30.6V44.7039H72.3588V30.6H68.8076V27.3206H79.2445V30.6H75.6929ZM60.4965 30.6V34.5451H65.1111V37.5042H60.4965V41.4492H66.7296V44.7039H57.1627V27.3206H66.7296V30.6H60.4965ZM50.5424 44.7039L47.1601 37.4797H45.9038V44.7039H42.5697V27.3206H45.9038V34.4711H47.1601L50.5424 27.3206H54.2871L50.0351 35.9505L54.2871 44.7039H50.5424ZM33.8237 30.2546C32.6641 30.2546 31.4561 30.8961 31.4561 32.893V39.0575C31.4561 41.1042 32.6641 41.7206 33.8237 41.7206C35.3699 41.7206 36.2157 40.9562 36.2157 38.4165V38.1946H39.5495C39.5495 42.6327 37.6891 44.9752 33.8237 44.9752C30.4414 44.9752 28.098 42.5095 28.098 38.9587V32.9918C28.098 29.466 30.4414 27 33.8237 27C37.6169 27 39.5495 29.5397 39.5495 33.5835H36.2157V33.3369C36.2157 30.7727 34.9833 30.2546 33.8237 30.2546ZM21.9853 39.0819V32.9178C21.9853 30.9696 20.8497 30.2546 19.5934 30.2546C18.4099 30.2546 17.226 30.8961 17.226 32.893V39.0575C17.226 41.0051 18.3374 41.6959 19.5934 41.6959C20.729 41.6959 21.9853 41.0793 21.9853 39.0819ZM13.8679 38.9587V33.0413C13.8679 29.4905 16.2114 27 19.5934 27C22.9518 27 25.3194 29.4905 25.3194 33.0413V38.9587C25.3194 42.4848 22.9518 44.9505 19.5934 44.9505C16.2114 44.9505 13.8679 42.4848 13.8679 38.9587ZM81.0662 0C85.9923 0 90 4.03734 90 9C90 13.9627 85.9923 18 81.0662 18H67.4527C66.9044 18 66.4602 17.5523 66.4602 16.9999C66.4602 16.4475 66.9044 16.0001 67.4527 16.0001H81.0662C84.8977 16.0001 88.0147 12.8599 88.0147 9C88.0147 5.14013 84.8977 1.99994 81.0662 1.99994H59.5116C58.9633 1.99994 58.5188 1.5525 58.5188 1.00012C58.5188 0.447747 58.9633 0 59.5116 0H81.0662ZM78.0883 9C78.0883 10.6543 79.4241 12.0001 81.0663 12.0001C82.7082 12.0001 84.0441 10.6543 84.0441 9C84.0441 7.34569 82.7082 5.99988 81.0663 5.99988C79.4241 5.99988 78.0883 7.34569 78.0883 9ZM86.0293 9C86.0293 11.7571 83.8028 13.9998 81.0663 13.9998C78.3295 13.9998 76.103 11.7571 76.103 9C76.103 6.24291 78.3295 4.00024 81.0663 4.00024C83.8028 4.00024 86.0293 6.24291 86.0293 9ZM74.2594 5.99988H64.0495C63.5011 5.99988 63.0567 5.55213 63.0567 4.99976C63.0567 4.44766 63.5011 4.00024 64.0495 4.00024H74.2594C74.8078 4.00024 75.2522 4.44766 75.2522 4.99976C75.2522 5.55213 74.8078 5.99988 74.2594 5.99988ZM75.2521 13.0001C75.2521 13.5522 74.8077 14 74.2594 14H62.9151C62.3667 14 61.9223 13.5522 61.9223 13.0001C61.9223 12.4477 62.3667 12 62.9151 12H74.2594C74.8077 12 75.2521 12.4477 75.2521 13.0001ZM74.1177 9C74.1177 9.55237 73.6732 10.0001 73.1249 10.0001H57.2428C56.6945 10.0001 56.25 9.55237 56.25 9C56.25 8.44763 56.6945 7.99988 57.2428 7.99988H73.1249C73.6732 7.99988 74.1177 8.44763 74.1177 9Z" fill="white"/>
</g>
<defs>
<clipPath id="clip0_2239_50398">
<rect width="148" height="45" fill="white"/>
</clipPath>
</defs>
</svg>
