<svg width="40" height="32" viewBox="0 0 40 32" fill="none" xmlns="http://www.w3.org/2000/svg">
<path fill-rule="evenodd" clip-rule="evenodd" d="M27.8162 7C32.7423 7 36.75 11.0373 36.75 16C36.75 20.9627 32.7423 25 27.8162 25H14.2027C13.6544 25 13.2102 24.5523 13.2102 23.9999C13.2102 23.4475 13.6544 23.0001 14.2027 23.0001H27.8162C31.6477 23.0001 34.7647 19.8599 34.7647 16C34.7647 12.1401 31.6477 8.99994 27.8162 8.99994H6.2616C5.71329 8.99994 5.26883 8.5525 5.26883 8.00012C5.26883 7.44775 5.71329 7 6.2616 7H27.8162ZM24.8383 16C24.8383 17.6543 26.1741 19.0001 27.8163 19.0001C29.4582 19.0001 30.7941 17.6543 30.7941 16C30.7941 14.3457 29.4582 12.9999 27.8163 12.9999C26.1741 12.9999 24.8383 14.3457 24.8383 16ZM32.7793 16C32.7793 18.7571 30.5528 20.9998 27.8163 20.9998C25.0795 20.9998 22.853 18.7571 22.853 16C22.853 13.2429 25.0795 11.0002 27.8163 11.0002C30.5528 11.0002 32.7793 13.2429 32.7793 16ZM21.0094 12.9999H10.7995C10.2511 12.9999 9.80669 12.5521 9.80669 11.9998C9.80669 11.4477 10.2511 11.0002 10.7995 11.0002H21.0094C21.5578 11.0002 22.0022 11.4477 22.0022 11.9998C22.0022 12.5521 21.5578 12.9999 21.0094 12.9999ZM22.0021 20.0001C22.0021 20.5522 21.5577 21 21.0094 21H9.66506C9.11675 21 8.67229 20.5522 8.67229 20.0001C8.67229 19.4477 9.11675 19 9.66506 19H21.0094C21.5577 19 22.0021 19.4477 22.0021 20.0001ZM20.8677 16C20.8677 16.5524 20.4232 17.0001 19.8749 17.0001H3.99277C3.44446 17.0001 3 16.5524 3 16C3 15.4476 3.44446 14.9999 3.99277 14.9999H19.8749C20.4232 14.9999 20.8677 15.4476 20.8677 16Z" fill="#27BB86"/>
</svg>
