<svg width="360" height="270" viewBox="0 0 180 135" fill="none" xmlns="http://www.w3.org/2000/svg">
  <defs>
    <filter id="card-shadow" x="-50%" y="-50%" width="200%" height="200%" filterUnits="objectBoundingBox">
      <feGaussianBlur in="SourceAlpha" stdDeviation="3" result="blur1"/>
      <feOffset in="blur1" dx="0" dy="2" result="offset1"/>
      <feColorMatrix in="offset1" type="matrix" values="0 0 0 0 0  0 0 0 0 0  0 0 0 0 0  0 0 0 0.08 0" result="shadow1"/>
      <feGaussianBlur in="SourceAlpha" stdDeviation="1" result="blur2"/>
      <feOffset in="blur2" dx="0" dy="1" result="offset2"/>
      <feColorMatrix in="offset2" type="matrix" values="0 0 0 0 0  0 0 0 0 0  0 0 0 0 0  0 0 0 0.05 0" result="shadow2"/>
      <feMerge>
        <feMergeNode in="shadow1"/>
        <feMergeNode in="shadow2"/>
        <feMergeNode in="SourceGraphic"/>
      </feMerge>
    </filter>
  </defs>

  <!-- Gray background (rounded left corners only) -->
  <path d="M12,0 H180 V135 H12 A12,12 0 0,1 0,123 V12 A12,12 0 0,1 12,0 Z" fill="#F5F6F8"/>

  <!-- Dashboard card with drop shadow -->
  <g filter="url(#card-shadow)">
    <rect x="20" y="20" width="140" height="95" rx="6" fill="white"/>

    <!-- Top bar -->
    <rect x="30" y="28" width="8" height="8" rx="4" fill="#F0F0F4"/>
    <rect x="42" y="30" width="48" height="4" rx="2" fill="#F0F0F4"/>

    <!-- Row 1 -->
    <rect x="30" y="47" width="120" height="18" rx="4" fill="#FAFAFB"/>
    <rect x="34" y="51" width="14" height="10" rx="2.5" fill="#625AFA"/>
    <rect x="52" y="52" width="40" height="3" rx="1.5" fill="#D8DEE4"/>
    <rect x="52" y="57" width="26" height="3" rx="1.5" fill="#E3E8EE"/>

    <!-- Row 2 -->
    <rect x="30" y="69" width="120" height="18" rx="4" fill="#FAFAFB"/>
    <rect x="34" y="73" width="14" height="10" rx="2.5" fill="#625AFA"/>
    <rect x="52" y="74" width="36" height="3" rx="1.5" fill="#D8DEE4"/>
    <rect x="52" y="79" width="30" height="3" rx="1.5" fill="#E3E8EE"/>

    <!-- Row 3 -->
    <rect x="30" y="91" width="120" height="18" rx="4" fill="#FAFAFB"/>
    <rect x="34" y="95" width="14" height="10" rx="2.5" fill="#625AFA"/>
    <rect x="52" y="96" width="44" height="3" rx="1.5" fill="#D8DEE4"/>
    <rect x="52" y="101" width="24" height="3" rx="1.5" fill="#E3E8EE"/>
  </g>
</svg>
